<?xml version="1.0" encoding="utf-8"?>
<!-- Generator: Adobe Illustrator 23.0.5, SVG Export Plug-In . SVG Version: 6.00 Build 0)  -->
<svg version="1.1" id="图层_1" xmlns="http://www.w3.org/2000/svg" xmlns:xlink="http://www.w3.org/1999/xlink" x="0px" y="0px"
	 viewBox="0 0 256 256" style="enable-background:new 0 0 256 256;" xml:space="preserve">
<g>
	<g>
		<path d="M207.5,5.1c5.4,1.2,10.3,3.3,14.1,7.7c4.3,5,5.6,10.9,5.6,17.2c0,6.8,0,13.6,0,20.4c0,20.7,0,41.4,0,62c0,1.3,0,2.6,0,4.1
			c-7.5,0-14.7,0-22.2,0c0-7.2,0-14.4,0-21.8c-59.3,0-118.5,0-177.8,0c0,14.6,0,29.3,0,44.3c29.4,0,58.9,0,88.5,0
			c0,7.6,0,14.9,0,22.4c-29.6,0-59,0-88.6,0c0,15,0,29.7,0,44.6c29.5,0,58.9,0,88.5,0c0,7.5,0,14.8,0,22.3c-0.9,0-1.7,0.1-2.6,0.1
			c-28,0-56,0-83.9,0c-9.9,0-17.7-3.7-22.3-12.9c-1.1-2.1-1.5-4.6-2.2-6.9c0-61.4,0-122.9,0-184.3c1.5-3.5,2.7-7.4,4.7-10.6
			c3.5-5.3,9.1-7.6,15.1-8.8C85.5,5.1,146.5,5.1,207.5,5.1z M27.2,27.6c0,15,0,29.6,0,44.2c59.3,0,118.4,0,177.6,0
			c0-14.8,0-29.5,0-44.2C145.5,27.6,86.4,27.6,27.2,27.6z"/>
		<path d="M38.1,127.7c0-7.3,0-14.5,0-21.9c18.5,0,36.8,0,55.3,0c0.1,0.4,0.3,0.8,0.3,1.2c0,6.3,0,12.6,0,18.8c0,1.5-0.3,2.2-2,2.2
			C74.1,128,56.5,128,38.9,128C38.7,128,38.5,127.8,38.1,127.7z"/>
		<path d="M38.1,195c0-7.6,0-14.8,0-22.2c18.5,0,36.8,0,55.6,0c0,2.5,0,5,0,7.4c0,4-0.1,8,0,12c0.1,2.2-0.6,2.8-2.8,2.8
			c-15.5-0.1-31.1,0-46.7,0C42.3,195,40.4,195,38.1,195z"/>
		<path d="M38.1,60.7c0-7.4,0-14.6,0-22c18.5,0,36.8,0,55.4,0c0.1,0.5,0.3,1,0.3,1.5c0,6.2,0,12.4,0,18.6c0,1.5-0.3,2.2-2,2.2
			c-17.5,0-35.1,0-52.6,0C38.9,61,38.6,60.9,38.1,60.7z"/>
		<path d="M149.4,60.9c-6.1,0.1-11.2-4.9-11.2-11c-0.1-6.1,4.9-11.2,11-11.3c6-0.1,11.2,5,11.3,11C160.5,55.7,155.5,60.8,149.4,60.9
			z"/>
		<path d="M171.5,49.6c0.1-6.1,5.2-11.1,11.3-11c6.1,0.1,11.1,5.3,10.9,11.3c-0.2,6.2-5.1,11-11.3,10.9
			C176.3,60.8,171.4,55.8,171.5,49.6z"/>
	</g>
	<g>
		<path d="M182.5,251.1c-4.2-0.8-8.5-1.3-12.7-2.5c-16.1-4.6-28.6-14.2-37.3-28.6c-5.8-9.6-8.9-20-9.1-31.2
			c-0.3-16.3,4.8-30.8,15.4-43.2c9-10.6,20.4-17.6,34-20.6c20.6-4.5,39.3,0,55.5,13.7c13.1,11.2,20.4,25.6,22.1,42.9
			c0,0.3,0.2,0.7,0.3,1c0,3,0,6,0,9c-0.1,0.5-0.3,1-0.3,1.4c-1.2,12.4-5.6,23.6-13.2,33.4c-8.5,10.9-19.4,18.4-32.8,22.1
			c-4.2,1.2-8.6,1.7-12.9,2.5C188.5,251.1,185.5,251.1,182.5,251.1z M232.4,187.4c0.2-25-20.1-45.6-45.1-45.8
			c-24.8-0.2-45.4,20.1-45.7,45.1c-0.3,25.2,20.1,46,45,46.1C211.9,232.9,232.2,212.7,232.4,187.4z"/>
		<path d="M196.2,150.7c0,9.2,0,18.1,0,27.4c1.8,0,3.4,0,5.1,0c3.8,0,7.5-0.1,11.3,0.1c0.6,0,1.7,0.7,1.7,1.1
			c0.1,5.6,0.1,11.2,0.1,17c-12.2,0-24.1,0-36.4,0c0-0.7,0-1.3,0-2c0-13.7,0-27.4,0-41c0-2,0.5-2.6,2.5-2.5
			C185.6,150.7,190.7,150.7,196.2,150.7z"/>
	</g>
</g>
</svg>
