<?xml version="1.0" encoding="UTF-8"?>
<!DOCTYPE svg PUBLIC "-//W3C//DTD SVG 1.1//EN" "http://www.w3.org/Graphics/SVG/1.1/DTD/svg11.dtd">
<!-- Creator: CorelDRAW 2018 (64-Bit) -->
<svg xmlns="http://www.w3.org/2000/svg" xml:space="preserve" width="256px" height="256px" version="1.1" style="shape-rendering:geometricPrecision; text-rendering:geometricPrecision; image-rendering:optimizeQuality; fill-rule:evenodd; clip-rule:evenodd"
viewBox="0 0 256 256"
 xmlns:xlink="http://www.w3.org/1999/xlink">
 <defs>
  <style type="text/css">
   <![CDATA[
    .fil0 {fill:black}
   ]]>
  </style>
 </defs>
 <g id="图层_x0020_1">
  <metadata id="CorelCorpID_0Corel-Layer"/>
  <path class="fil0" d="M64.945 177.432c13.024,-10.959 62.545,-13.695 100.076,-18.541 3.391,-0.045 7.681,5.43 -0.123,7.885 -18.118,4.482 -75.105,4.44 -97.735,21.945 -2.502,1.936 -6.143,-1.431 -6.754,-4.535 0,0 0,0 0,0 -0.61,-3.105 2.115,-4.717 4.536,-6.754zm10.012 -113.587c2.938,-13.579 5.69,-28.046 16.699,-44.115 10.696,-15.611 26.121,-13.493 40.818,-5.354 10.283,-7.505 18.588,-8.694 29.97,-4.687 35.648,12.55 42.654,80.569 47.565,113.526 1.433,-0.183 2.91,-0.363 4.428,-0.543 9.257,-1.101 15.999,14.303 23.824,24.635 16.439,21.707 -7.873,38.579 0.034,53.076 4.191,9.059 9.855,18.45 14.038,28.16 1.921,4.459 1.176,7.156 -2.709,8.534 -3.082,1.094 -6.526,-1.267 -8.951,-6.268 -1.402,-2.893 -2.909,-5.768 -4.377,-8.643 -0.671,-1.314 -8.344,-16.812 -8.424,-16.976 -5.19,-10.508 -2.105,-19.175 1.441,-28.723 2.585,-6.959 6.035,-14.161 0.345,-21.673 -3.275,-5.231 -10.917,-19.762 -14.677,-20.25 -4.124,-0.536 -11.539,1.082 -15.697,2.094 10.594,5.721 16.593,10.968 17.156,22.577 -0.044,10.506 -7.279,17.877 -18.292,12.559 -2.716,-1.734 -12.137,-6.42 -14.379,-2.297 -0.948,4.168 4.008,7.63 6.46,10.58 2.211,2.796 3.939,5.993 4.759,9.948 1.288,6.298 3.557,10.064 8.326,14.432 6.224,5.705 10.195,26.907 12.176,39.356 0.429,2.696 0.003,6.547 -4.305,7.598 -1.384,0.338 -5.534,0.704 -7.155,-6.511 -2.914,-12.969 -5.263,-28.84 -7.999,-31.576 -0.899,-0.899 -7.125,-5.96 -10.587,-14.65 -12.635,10.859 -34.663,28.982 -49.278,36.449l-0.008 0.005 0.001 -0.002c-12.493,6.381 -26.644,9.98 -41.636,9.98 -50.628,0 -91.67,-41.042 -91.67,-91.671 0,-43.912 30.878,-80.606 72.104,-89.57zm67.872 -41.716c19.76,19.324 23.469,55.449 28.915,81.877 3.009,4.693 5.602,9.677 7.727,14.902 2.311,4.901 4.53,8.373 7.449,11.02 2.199,-2.325 5.359,-3.606 10.976,-4.757 -2.895,-21.852 -9.948,-93.142 -40.574,-104.766 -4.791,-1.818 -9.806,-0.64 -14.493,1.724zm12.217 62.44c-4.505,-19.732 -7.49,-39.419 -22.725,-54.315 -8.034,8.392 -14.982,20.76 -19.868,33.246 16.121,3.197 30.719,10.622 42.593,21.069zm-32.695 -61.366c-23.042,-9.815 -30.507,23.318 -33.843,38.743 3.603,-0.235 7.178,-0.261 10.783,-0.076 4.355,-12.691 12.217,-27.458 23.06,-38.667zm82.07 132.372c-5.23,-6.907 -9.395,-8.383 -16.828,-11.506 -4.227,-1.776 -12.707,-8.548 -17.242,-17.506l-0.422 -0.422c-4.04,-11.167 -10.488,-21.181 -18.719,-29.412 -14.506,-14.506 -34.548,-23.479 -56.687,-23.479 -22.138,0 -42.18,8.973 -56.686,23.479 -14.506,14.506 -23.479,34.548 -23.479,56.686 0,22.139 8.973,42.18 23.479,56.687 14.506,14.506 34.548,23.479 56.686,23.479 33.604,0 62.364,-24.938 87.07,-45.822 -1.75,-2.406 -4.233,-4.359 -6.932,-7.569 -3.975,-9.582 -3.92,-18.191 7.023,-22.517 6.564,-1.553 15.579,-0.696 22.708,4.46 0.873,-2.215 0.694,-4.285 0.029,-6.558zm-166.69 -40.388l31.211 1.056c3.162,0.107 5.662,2.782 5.555,5.944l0 0c-0.107,3.162 -2.782,5.662 -5.944,5.554l-31.211 -1.055c-3.162,-0.107 -5.661,-2.782 -5.554,-5.944l0 0c0.107,-3.162 2.781,-5.662 5.943,-5.555zm71.429 3.771c10.277,1.383 49.348,7.605 48.586,15.514 -0.655,0.606 -2.497,0.878 -5.113,0.914 -11.936,0.166 -39.975,-4.588 -44.781,-5.017 -2.975,-0.264 -5.096,-3.292 -4.737,-6.431 0,0 0,0 0,0 0.36,-3.138 3.08,-5.379 6.045,-4.98z"/>
 </g>
</svg>
