<svg id="Capa_1" enable-background="new 0 0 512 512" height="512" viewBox="0 0 512 512" width="512" xmlns="http://www.w3.org/2000/svg"><g><path d="m24.974 447.193c-8.567-4.181-12.266-14.347-8.392-23.056 18.384-41.325 64.829-90.642 105.979-105.62 46.303-16.853 100.544-.732 114.762 38.332s-16.97 86.279-63.274 103.132c-41.15 14.977-108.429 7.051-149.075-12.788z" fill="#6fcd90"/><path d="m487.026 447.193c8.567-4.181 12.266-14.347 8.392-23.056-18.384-41.325-64.828-90.642-105.979-105.62-46.303-16.853-100.544-.732-114.762 38.332s16.97 86.279 63.274 103.132c41.15 14.977 108.429 7.051 149.075-12.788z" fill="#6fcd90"/><path d="m278.974 494.185c-13.263 11.23-32.684 11.23-45.947 0-30.727-26.017-57.264-67.925-57.264-99.079 0-38.775 35.924-74.544 80.238-74.544s80.238 35.769 80.238 74.544c-.001 31.155-26.538 73.062-57.265 99.079z" fill="#8de1ce"/><path d="m181.654 271.558c40.071-7.066 77.688-45.84 65.658-114.064-10.26-58.19-60.001-117.303-95.962-144.014-9.534-7.082-22.951-4.716-29.488 5.2-24.656 37.4-51.179 109.96-40.919 168.15 12.03 68.223 60.64 91.794 100.711 84.728z" fill="#f1b3c1"/><path d="m173.886 380.91c54.422-19.808 101.17-73.553 75.334-144.537-24.588-67.556-143.752-106.401-210.011-116.51-16.354-2.495-31.679 8.591-34.364 24.914-8.781 53.378-7.276 119.458 18.426 173.834 32.28 68.296 96.193 82.107 150.615 62.299z" fill="#f8d2e3"/><path d="m330.346 271.558c-40.071-7.066-77.688-45.84-65.658-114.064 10.26-58.19 60.001-117.303 95.962-144.014 9.534-7.082 22.951-4.716 29.488 5.2 24.656 37.4 51.179 109.96 40.919 168.15-12.03 68.223-60.64 91.794-100.711 84.728z" fill="#f1b3c1"/><path d="m249.22 236.373c-15.662-43.032-69.697-74.41-123.989-94.137-11.1 30.089-20.362 66.284-20.362 103.3 0 52.998 16.39 104.613 56.602 139.257 4.18-1.1 8.325-2.395 12.415-3.884 54.422-19.807 101.17-73.552 75.334-144.536z" fill="#f1b3c1"/><path d="m338.114 380.91c-54.422-19.808-101.17-73.553-75.334-144.537 24.588-67.556 143.752-106.401 210.011-116.51 16.354-2.495 31.679 8.591 34.365 24.914 8.781 53.378 7.276 119.458-18.426 173.834-32.281 68.296-96.194 82.107-150.616 62.299z" fill="#f8d2e3"/><path d="m262.78 236.373c15.662-43.032 69.697-74.41 123.989-94.137 11.1 30.089 20.362 66.284 20.362 103.3 0 52.998-16.39 104.613-56.602 139.257-4.18-1.1-8.325-2.395-12.415-3.884-54.422-19.807-101.17-73.552-75.334-144.536z" fill="#f1b3c1"/><path d="m256 389.193c57.914 0 120.225-45.054 120.225-143.657 0-83.652-54.525-178.238-98.213-224.837-11.924-12.718-32.102-12.718-44.025 0-43.688 46.599-98.213 141.185-98.213 224.837.001 98.603 62.311 143.657 120.226 143.657z" fill="#f8d2e3"/><g><g fill="#fff"><ellipse cx="180.533" cy="218.925" rx="27.846" ry="22.175"/><ellipse cx="331.467" cy="218.925" rx="27.846" ry="22.175"/></g><g fill="#4b5165"><path d="m196.761 204.019c-7.675 0-14.972-3.323-20.021-9.118-2.721-3.123-2.395-7.86.727-10.582 3.123-2.721 7.86-2.396 10.582.727 2.2 2.525 5.376 3.973 8.713 3.973s6.513-1.448 8.713-3.973c2.721-3.122 7.459-3.447 10.582-.727 3.123 2.722 3.448 7.459.727 10.582-5.051 5.794-12.348 9.118-20.023 9.118z"/><path d="m315.239 204.019c-7.674 0-14.972-3.323-20.022-9.118-2.721-3.123-2.396-7.86.727-10.582 3.123-2.721 7.86-2.396 10.582.727 2.2 2.525 5.376 3.973 8.713 3.973s6.513-1.448 8.713-3.973c2.721-3.124 7.458-3.448 10.582-.727 3.123 2.721 3.448 7.458.727 10.582-5.05 5.794-12.347 9.118-20.022 9.118z"/><path d="m267.109 209.585c0-6.543-4.974-11.847-11.109-11.847s-11.109 5.304-11.109 11.847 4.974 11.847 11.109 11.847 11.109-5.304 11.109-11.847z"/></g></g></g></svg>