<?xml version="1.0" encoding="iso-8859-1"?>
<!-- Generator: Adobe Illustrator 19.0.0, SVG Export Plug-In . SVG Version: 6.00 Build 0)  -->
<svg version="1.1" id="Capa_1" xmlns="http://www.w3.org/2000/svg" xmlns:xlink="http://www.w3.org/1999/xlink" x="0px" y="0px"
	 viewBox="0 0 511.999 511.999" style="enable-background:new 0 0 511.999 511.999;" xml:space="preserve">
<g>
	<g>
		<path d="M354.541,151.86c-0.002-0.239-0.015-0.477-0.04-0.713c-0.01-0.099-0.022-0.196-0.037-0.293
			c-0.035-0.241-0.083-0.479-0.141-0.715c-0.018-0.074-0.032-0.148-0.052-0.221c-0.085-0.303-0.188-0.602-0.31-0.892
			c-0.026-0.062-0.058-0.12-0.086-0.181c-0.105-0.232-0.221-0.458-0.35-0.679c-0.05-0.085-0.102-0.168-0.155-0.251
			c-0.134-0.21-0.279-0.413-0.435-0.611c-0.035-0.045-0.062-0.095-0.099-0.139L259.589,34.284c-0.057-0.068-0.124-0.123-0.183-0.189
			c-0.135-0.153-0.276-0.297-0.423-0.438c-0.133-0.128-0.267-0.249-0.408-0.366c-0.15-0.124-0.304-0.238-0.464-0.351
			c-0.157-0.11-0.314-0.216-0.479-0.312c-0.16-0.095-0.322-0.181-0.49-0.264c-0.181-0.09-0.362-0.173-0.55-0.247
			c-0.083-0.033-0.158-0.079-0.241-0.109c-0.089-0.032-0.181-0.046-0.27-0.074c-0.192-0.061-0.383-0.114-0.579-0.159
			c-0.183-0.042-0.365-0.079-0.549-0.107c-0.188-0.029-0.375-0.049-0.565-0.064c-0.193-0.015-0.383-0.024-0.575-0.023
			c-0.185,0-0.368,0.009-0.553,0.023c-0.197,0.015-0.391,0.036-0.586,0.066c-0.178,0.028-0.354,0.063-0.531,0.104
			c-0.201,0.046-0.398,0.1-0.594,0.163c-0.088,0.028-0.177,0.041-0.263,0.072c-0.082,0.03-0.156,0.074-0.235,0.106
			c-0.191,0.076-0.376,0.161-0.561,0.252c-0.164,0.082-0.324,0.167-0.481,0.259c-0.167,0.099-0.327,0.206-0.486,0.317
			c-0.158,0.111-0.31,0.225-0.458,0.346c-0.142,0.117-0.277,0.24-0.411,0.369c-0.147,0.141-0.287,0.284-0.421,0.436
			c-0.059,0.066-0.126,0.121-0.183,0.19l-38.668,46.809c-2.632,3.186-2.183,7.903,1.004,10.536
			c3.186,2.633,7.903,2.182,10.536-1.004l25.416-30.766v84.586h-69.876l15.192-18.391c2.632-3.186,2.183-7.904-1.004-10.536
			c-3.186-2.633-7.904-2.182-10.536,1.004l-25.311,30.64c-0.037,0.044-0.064,0.094-0.099,0.139c-0.156,0.198-0.301,0.4-0.435,0.611
			c-0.053,0.083-0.105,0.167-0.155,0.251c-0.129,0.22-0.244,0.447-0.35,0.678c-0.028,0.061-0.06,0.12-0.086,0.181
			c-0.123,0.291-0.225,0.589-0.31,0.892c-0.02,0.073-0.034,0.148-0.052,0.221c-0.058,0.236-0.106,0.474-0.141,0.715
			c-0.014,0.098-0.026,0.196-0.037,0.293c-0.025,0.237-0.037,0.474-0.04,0.713c-0.001,0.083-0.006,0.164-0.004,0.246
			c0.007,0.301,0.028,0.604,0.072,0.905l45.561,311.822v0.002c0.532,3.633,2.624,6.828,5.74,8.765l45.399,28.231
			c0.051,0.032,0.107,0.053,0.159,0.084c0.055,0.032,0.103,0.072,0.158,0.103c0.115,0.064,0.235,0.11,0.352,0.167
			c0.129,0.063,0.256,0.129,0.388,0.185c0.186,0.078,0.375,0.141,0.565,0.204c0.126,0.041,0.249,0.088,0.376,0.123
			c0.215,0.058,0.431,0.097,0.649,0.136c0.108,0.019,0.214,0.047,0.321,0.061c0.326,0.043,0.655,0.068,0.984,0.068
			c0.328,0,0.657-0.024,0.984-0.068c0.109-0.014,0.215-0.042,0.323-0.062c0.216-0.039,0.433-0.078,0.647-0.136
			c0.128-0.035,0.251-0.082,0.377-0.123c0.19-0.063,0.379-0.125,0.564-0.203c0.132-0.056,0.259-0.122,0.389-0.185
			c0.117-0.057,0.237-0.104,0.352-0.167c0.055-0.031,0.104-0.07,0.158-0.103c0.052-0.031,0.108-0.052,0.159-0.084l45.399-28.231
			c3.118-1.939,5.21-5.135,5.74-8.767l45.562-311.822c0.044-0.301,0.065-0.604,0.072-0.905
			C354.548,152.024,354.542,151.942,354.541,151.86z M246.337,482.01l-32.969-20.502l-44.14-302.096h77.109V482.01z M261.304,59.859
			l69.876,84.586h-69.876V59.859z M294.271,461.509l-32.968,20.5V159.412h77.109L294.271,461.509z"/>
	</g>
</g>
<g>
	<g>
		<polygon points="413.815,473.537 413.815,473.537 413.814,473.54 		"/>
	</g>
</g>
<g>
	<g>
		<path d="M511.969,269.457c-0.006-0.069-0.02-0.136-0.028-0.205c-0.03-0.249-0.071-0.499-0.127-0.745
			c-0.022-0.098-0.047-0.195-0.072-0.291c-0.063-0.237-0.139-0.472-0.227-0.703c-0.021-0.056-0.032-0.114-0.055-0.17l-38.595-95.944
			c-0.033-0.083-0.081-0.156-0.117-0.236c-0.083-0.186-0.173-0.366-0.27-0.545c-0.088-0.161-0.178-0.317-0.276-0.469
			c-0.107-0.167-0.222-0.326-0.343-0.485c-0.112-0.146-0.224-0.287-0.346-0.424c-0.132-0.149-0.271-0.29-0.416-0.429
			c-0.131-0.126-0.264-0.246-0.404-0.362c-0.077-0.064-0.143-0.138-0.223-0.2c-0.087-0.066-0.183-0.114-0.271-0.176
			c-0.14-0.098-0.281-0.19-0.427-0.277c-0.188-0.113-0.378-0.218-0.573-0.312c-0.141-0.069-0.283-0.132-0.429-0.192
			c-0.208-0.086-0.415-0.163-0.629-0.229c-0.15-0.047-0.301-0.087-0.454-0.125c-0.214-0.052-0.426-0.096-0.643-0.129
			c-0.166-0.025-0.331-0.044-0.499-0.058c-0.207-0.017-0.412-0.027-0.62-0.027c-0.095,0-0.187-0.015-0.281-0.012
			c-0.093,0.003-0.181,0.025-0.272,0.032c-0.195,0.014-0.388,0.038-0.582,0.067c-0.189,0.029-0.374,0.063-0.559,0.105
			c-0.184,0.042-0.364,0.094-0.545,0.151c-0.187,0.059-0.369,0.122-0.55,0.194c-0.171,0.068-0.336,0.145-0.503,0.227
			c-0.182,0.089-0.358,0.184-0.531,0.286c-0.077,0.046-0.159,0.078-0.233,0.126l-86.934,56.012c-0.048,0.031-0.089,0.07-0.136,0.102
			c-0.209,0.141-0.409,0.291-0.601,0.451c-0.076,0.063-0.151,0.127-0.224,0.193c-0.19,0.172-0.368,0.351-0.539,0.541
			c-0.045,0.05-0.094,0.096-0.138,0.147c-0.205,0.239-0.393,0.492-0.566,0.755c-0.042,0.064-0.078,0.132-0.118,0.197
			c-0.127,0.207-0.243,0.418-0.35,0.636c-0.044,0.09-0.085,0.18-0.125,0.271c-0.095,0.218-0.179,0.439-0.253,0.666
			c-0.026,0.079-0.056,0.156-0.079,0.235c-0.085,0.289-0.157,0.583-0.206,0.884l-36.1,219.642v0.001
			c-0.525,3.198,0.38,6.447,2.484,8.913l24.514,28.722c0.048,0.056,0.102,0.104,0.151,0.158c0.034,0.037,0.06,0.078,0.095,0.115
			c0.055,0.058,0.116,0.109,0.172,0.165c0.089,0.089,0.179,0.177,0.272,0.26c0.106,0.095,0.215,0.186,0.325,0.273
			c0.095,0.076,0.19,0.153,0.287,0.224c0.118,0.085,0.239,0.164,0.36,0.241c0.099,0.063,0.196,0.127,0.297,0.186
			c0.129,0.074,0.259,0.14,0.392,0.206c0.101,0.051,0.202,0.103,0.304,0.149c0.138,0.062,0.279,0.114,0.421,0.167
			c0.103,0.038,0.204,0.08,0.307,0.114c0.149,0.049,0.301,0.086,0.453,0.125c0.101,0.026,0.2,0.056,0.3,0.078
			c0.169,0.036,0.339,0.059,0.511,0.083c0.087,0.012,0.174,0.031,0.261,0.04c0.257,0.027,0.516,0.042,0.776,0.042
			c0.003,0,0.005,0,0.008,0c0,0,0.001,0,0.002,0c0.278,0,0.559-0.02,0.839-0.052c0.089-0.01,0.177-0.027,0.265-0.04
			c0.125-0.019,0.25-0.031,0.375-0.056c0.058-0.012,0.112-0.033,0.17-0.046c0.063-0.014,0.126-0.02,0.189-0.036l36.602-9.28
			c3.144-0.797,5.76-2.927,7.179-5.843l97.433-200.127c0.133-0.273,0.244-0.554,0.342-0.838c0.028-0.082,0.049-0.165,0.074-0.246
			c0.067-0.224,0.127-0.45,0.174-0.68c0.021-0.099,0.039-0.198,0.056-0.298c0.039-0.237,0.065-0.476,0.081-0.715
			c0.005-0.078,0.015-0.156,0.018-0.234C512.005,270.085,511.997,269.77,511.969,269.457z M466.748,196.29l24.9,61.898
			l-40.492-12.881L466.748,196.29z M452.485,191.752l-15.592,49.017l-15.775-5.019l-24.717-7.864L452.485,191.752z M365.147,466.306
			l-14.572-17.074l34.396-209.275l47.385,15.074L365.147,466.306z M401.166,465.327l-21.758,5.517l67.209-211.275l20.56,6.54
			l26.823,8.533L401.166,465.327z"/>
	</g>
</g>
<g>
	<g>
		<path d="M171.611,452.605l-13.526-73.585c-0.747-4.065-4.652-6.763-8.713-6.008c-4.065,0.746-6.754,4.648-6.008,8.712
			l13.177,71.687L143.54,469.24L76.238,270.723l11.918-4.04l32.065-10.871l14.711,80.035c0.747,4.065,4.649,6.756,8.713,6.008
			c4.065-0.746,6.754-4.648,6.008-8.712l-16.263-88.478l-0.001-0.003l-0.013-0.069c-0.055-0.298-0.132-0.59-0.221-0.876
			c-0.026-0.085-0.06-0.166-0.089-0.249c-0.077-0.219-0.163-0.433-0.258-0.644c-0.044-0.095-0.089-0.188-0.136-0.28
			c-0.108-0.211-0.226-0.414-0.352-0.613c-0.044-0.07-0.084-0.142-0.131-0.21c-0.177-0.257-0.367-0.504-0.575-0.737
			c-0.049-0.055-0.104-0.105-0.154-0.159c-0.169-0.18-0.346-0.352-0.533-0.515c-0.077-0.067-0.156-0.132-0.237-0.197
			c-0.191-0.153-0.39-0.295-0.597-0.43c-0.05-0.033-0.094-0.073-0.145-0.104l-83.593-51.652c-0.075-0.047-0.157-0.076-0.232-0.12
			c-0.177-0.101-0.358-0.194-0.543-0.279c-0.166-0.078-0.332-0.15-0.502-0.215c-0.183-0.07-0.368-0.13-0.557-0.185
			c-0.181-0.053-0.361-0.101-0.545-0.14c-0.186-0.04-0.373-0.07-0.563-0.095c-0.193-0.026-0.385-0.045-0.579-0.056
			c-0.093-0.005-0.182-0.025-0.275-0.027c-0.104-0.002-0.204,0.015-0.306,0.017c-0.176,0.004-0.35,0.013-0.525,0.03
			c-0.23,0.021-0.456,0.051-0.68,0.093c-0.129,0.024-0.255,0.052-0.382,0.083c-0.256,0.062-0.507,0.134-0.753,0.221
			c-0.099,0.035-0.197,0.074-0.294,0.113c-0.26,0.105-0.513,0.223-0.758,0.356c-0.088,0.048-0.174,0.098-0.259,0.149
			c-0.242,0.145-0.474,0.3-0.698,0.471c-0.045,0.034-0.095,0.059-0.14,0.094c-0.045,0.036-0.081,0.08-0.125,0.116
			c-0.201,0.168-0.39,0.344-0.572,0.533c-0.097,0.1-0.191,0.2-0.281,0.303c-0.148,0.171-0.286,0.348-0.419,0.534
			c-0.1,0.138-0.195,0.277-0.284,0.421c-0.104,0.167-0.199,0.338-0.289,0.514c-0.09,0.175-0.174,0.35-0.249,0.53
			c-0.035,0.083-0.083,0.159-0.115,0.243L0.485,283.471c-0.022,0.057-0.032,0.117-0.052,0.174c-0.082,0.232-0.153,0.464-0.211,0.7
			c-0.025,0.1-0.048,0.2-0.068,0.3c-0.05,0.243-0.086,0.489-0.111,0.735c-0.007,0.073-0.02,0.145-0.026,0.217
			c-0.022,0.312-0.024,0.625-0.007,0.937c0.004,0.081,0.016,0.161,0.023,0.24c0.02,0.237,0.051,0.473,0.094,0.707
			c0.018,0.101,0.039,0.2,0.062,0.298c0.052,0.229,0.116,0.456,0.19,0.68c0.026,0.081,0.048,0.162,0.077,0.241
			c0.104,0.282,0.22,0.562,0.358,0.833L96.965,477.91v0.001c1.45,2.841,4.062,4.885,7.17,5.613l34.94,8.161
			c0.07,0.016,0.141,0.022,0.212,0.037c0.05,0.01,0.098,0.028,0.149,0.038c0.107,0.02,0.214,0.029,0.32,0.044
			c0.084,0.011,0.167,0.026,0.25,0.034c0.257,0.027,0.514,0.044,0.77,0.044h0.002c0.003,0,0.005,0,0.008,0
			c0.266,0,0.531-0.016,0.794-0.044c0.09-0.01,0.178-0.029,0.267-0.042c0.175-0.025,0.35-0.05,0.522-0.088
			c0.103-0.022,0.203-0.054,0.304-0.081c0.156-0.041,0.312-0.081,0.465-0.132c0.106-0.035,0.208-0.079,0.311-0.118
			c0.145-0.055,0.289-0.11,0.431-0.175c0.104-0.047,0.205-0.102,0.306-0.155c0.136-0.07,0.27-0.139,0.402-0.217
			c0.101-0.059,0.197-0.125,0.294-0.189c0.127-0.083,0.251-0.167,0.373-0.257c0.096-0.071,0.188-0.148,0.279-0.224
			c0.116-0.096,0.23-0.193,0.341-0.296c0.089-0.083,0.175-0.17,0.259-0.257c0.061-0.062,0.126-0.118,0.184-0.183
			c0.036-0.04,0.064-0.085,0.1-0.126c0.046-0.053,0.097-0.099,0.141-0.153l22.771-27.724
			C171.356,458.957,172.187,455.745,171.611,452.605z M108.566,243.96l-37.134,12.59l-15.24-44.951L108.566,243.96z M42.018,216.404
			l15.239,44.951l-37.135,12.589L42.018,216.404z M109.418,469.389L18.079,290.441l43.983-14.911l67.303,198.518L109.418,469.389z"
			/>
	</g>
</g>
<g>
	<g>
		<path d="M375.879,54.821h-15.772V39.049c0-4.134-3.351-7.483-7.483-7.483c-4.133,0-7.483,3.35-7.483,7.483v15.772h-15.772
			c-4.133,0-7.483,3.35-7.483,7.483c0,4.134,3.351,7.483,7.483,7.483h15.772V85.56c0,4.134,3.351,7.483,7.483,7.483
			s7.483-3.35,7.483-7.483V69.788h15.772c4.133,0,7.483-3.35,7.483-7.483C383.363,58.171,380.012,54.821,375.879,54.821z"/>
	</g>
</g>
<g>
	<g>
		<path d="M119.941,154.325h-15.772v-15.772c0-4.134-3.351-7.483-7.483-7.483c-4.133,0-7.483,3.35-7.483,7.483v15.772H73.431
			c-4.133,0-7.483,3.35-7.483,7.483s3.351,7.483,7.483,7.483h15.772v15.772c0,4.134,3.351,7.483,7.483,7.483
			c4.133,0,7.483-3.35,7.483-7.483v-15.772h15.772c4.133,0,7.483-3.35,7.483-7.483S124.074,154.325,119.941,154.325z"/>
	</g>
</g>
<g>
	<g>
		<path d="M415.226,117.424h-4.144v-4.144c0-4.134-3.351-7.483-7.483-7.483c-4.133,0-7.483,3.35-7.483,7.483v4.144h-4.144
			c-4.133,0-7.483,3.35-7.483,7.483c0,4.134,3.351,7.483,7.483,7.483h4.144v4.144c0,4.134,3.351,7.483,7.483,7.483
			c4.133,0,7.483-3.35,7.483-7.483v-4.144h4.144c4.133,0,7.483-3.35,7.483-7.483C422.709,120.774,419.359,117.424,415.226,117.424z"
			/>
	</g>
</g>
<g>
	<g>
		<path d="M174.854,60.15h-6.799v-6.799c0-4.134-3.351-7.483-7.483-7.483c-4.133,0-7.483,3.35-7.483,7.483v6.799h-6.799
			c-4.133,0-7.483,3.35-7.483,7.483s3.351,7.483,7.483,7.483h6.799v6.798c0,4.134,3.351,7.483,7.483,7.483
			c4.133,0,7.483-3.35,7.483-7.483v-6.798h6.799c4.133,0,7.483-3.35,7.483-7.483C182.338,63.499,178.987,60.15,174.854,60.15z"/>
	</g>
</g>
<g>
	<g>
		<path d="M64.225,21.665h-4.144v-4.144c0-4.134-3.351-7.483-7.483-7.483c-4.133,0-7.483,3.35-7.483,7.483v4.144H40.97
			c-4.133,0-7.483,3.35-7.483,7.483c0,4.134,3.351,7.483,7.483,7.483h4.144v4.144c0,4.134,3.351,7.483,7.483,7.483
			c4.133,0,7.483-3.35,7.483-7.483v-4.144h4.144c4.133,0,7.483-3.351,7.483-7.483C71.708,25.015,68.358,21.665,64.225,21.665z"/>
	</g>
</g>
<g>
	<g>
		<path d="M478.387,21.665h-5.14v-5.14c0-4.134-3.351-7.483-7.483-7.483s-7.483,3.35-7.483,7.483v5.14h-5.14
			c-4.133,0-7.483,3.35-7.483,7.483c0,4.134,3.351,7.483,7.483,7.483h5.14v5.139c0,4.134,3.351,7.483,7.483,7.483
			s7.483-3.35,7.483-7.483v-5.139h5.14c4.133,0,7.483-3.35,7.483-7.483C485.87,25.015,482.52,21.665,478.387,21.665z"/>
	</g>
</g>
<g>
</g>
<g>
</g>
<g>
</g>
<g>
</g>
<g>
</g>
<g>
</g>
<g>
</g>
<g>
</g>
<g>
</g>
<g>
</g>
<g>
</g>
<g>
</g>
<g>
</g>
<g>
</g>
<g>
</g>
</svg>
