<?xml version="1.0" encoding="utf-8"?>
<!-- Generator: Adobe Illustrator 22.1.0, SVG Export Plug-In . SVG Version: 6.00 Build 0)  -->
<svg version="1.1" id="图层_1" xmlns="http://www.w3.org/2000/svg" xmlns:xlink="http://www.w3.org/1999/xlink" x="0px" y="0px"
	 viewBox="0 0 500 500" style="enable-background:new 0 0 500 500;" xml:space="preserve">
<path d="M136.2,21.7c2.3-0.5,44.4-0.7,126.3-0.7H285c47.5,0,78,0.3,91.6,1c8.6,0.5,14.4,2.2,17.4,5.1l1,1c2.5,2.7,4.2,5.9,5.1,9.5
	c0.9,3.2,1.4,8.5,1.4,16V67H259.8l-141.7-0.3V52.4c0-6.4,0.2-10.6,0.7-12.6c0.2-2,1-4.3,2.4-6.8C124.6,26.9,129.6,23.1,136.2,21.7z
	 M148.1,93.5v-19h110.2h110.2v3.7c0,2.4-0.4,3.7-1.1,3.7c-1.1,0-36.8,5.1-107.3,15.3c-70.4,10.2-106.7,15.3-108.9,15.3h-2.9
	L148.1,93.5L148.1,93.5z M268.7,137l99.1-14.3l0.4,20.9l0.2,20.9l35.3,4c22.8,2.6,37,4.3,42.6,5.3c5.5,1,9.4,2.4,11.5,4.2
	c3.1,2.6,4.8,5.9,5.2,10.1c0.4,4.2-0.5,8-2.8,11.5c-2.2,3.5-5.3,5.6-9.2,6.4c-2.3,0.4-16.1-0.8-41.4-3.7c-24.8-2.9-38-4.4-39.4-4.4
	c-0.4,0-0.7,1.1-1,3.4c-0.2,2.3-0.4,7.8-0.5,16.7c-0.1,8.9-0.2,20.4-0.3,34.4c0,14.1-0.1,34.6-0.1,61.7v116.3h9.7
	c5.6,0,9.9,0.7,12.8,2.2c2.9,1.5,5.5,4.2,7.8,8.2c1.2,2.1,2,4.3,2.3,6.4c0.3,2.1,0.5,6,0.5,11.7v13.1l-141.6-0.2l-141.7-0.4
	l-0.4-9.2c-0.6-12.5,1.5-20.9,6.2-25.3c2.9-2.7,5.4-4.5,7.4-5.3c2.1-0.8,5.1-1.2,9.2-1.2h7.5v-19c0-12.6-0.5-19-1.6-19
	c-1.1,0-20.9,3.3-59.4,9.8c-38.6,6.5-58.7,9.8-60.5,9.8c-4.5,0-9-1.4-13.3-4.2c-4.3-2.8-7.6-6.3-9.8-10.6c-1.4-2.7-2.2-6.4-2.3-11
	c-0.1-4.6,0.4-8.4,1.7-11.3c1.1-2.7,3.1-5.4,6-8c2.9-2.7,5.8-4.6,8.7-5.7c1.9-0.7,23.5-4.6,64.7-11.8c41.2-7.2,62.8-10.8,64.9-10.8
	c0.6,0,0.9-30.8,0.9-92.3v-92.3l10.8-1.5c1.7-0.3,7.4-1.1,17-2.5c9.6-1.4,24.1-3.5,43.3-6.2C238.5,141.4,255,139,268.7,137
	L268.7,137z M287.7,152.2c-5.3-1.1-12-1.7-20.2-1.7c-11.9,0.1-22.5,2-31.7,5.9c-9.2,3.9-18.1,10-26.6,18.5
	c-15.3,15.3-23.7,33.5-25.1,54.5c-0.7,9.7,0.3,19.1,2.8,28.2c2.6,9.1,6.4,17.3,11.5,24.4c5.1,7.1,11.2,13.5,18.3,19.2
	c7.1,5.7,15,9.9,23.4,12.7c8.5,2.8,17.4,4.4,26.8,4.9c9.4,0.5,18.8-1,28.3-4.4c10.9-3.7,20.7-9.4,29.3-17.4
	c8.6-7.9,15.1-16.9,19.6-26.9c4.5-10,7.2-20.8,8-32.3c0.9-11.5-1-22.7-5.5-33.6c-4.9-12.7-12.8-23.8-23.5-33.2
	C312.4,161.5,300.6,155.3,287.7,152.2L287.7,152.2z M311.9,208.6c3.3-1.8,7-2.3,11.1-1.4c4.1,0.9,7.2,2.8,9.2,5.8
	c1.3,1.9,2,4.8,2,8.7c0,2.6-0.2,4.5-0.7,5.7c-0.5,1.2-1.6,2.7-3.4,4.5c-1.7,1.7-3.2,2.8-4.3,3.4c-1.2,0.5-2.8,0.8-4.8,0.8
	c-3.3,0-6.2-0.6-8.7-1.8c-4.7-2.5-7.1-6.7-7.2-12.7C304.9,215.4,307.2,211.2,311.9,208.6z M217.2,210.8c2.4-1,4.3-1.6,5.5-1.6
	c1.2,0,3,0.5,5.6,1.6c6.2,2.5,9.3,7.1,9.3,13.7c0,2.2-0.3,4-0.8,5.3c-0.5,1.3-1.7,2.9-3.4,4.8c-1.9,2.1-3.4,3.3-4.5,3.8
	c-1.1,0.5-3.1,0.7-6,0.7s-4.9-0.2-6-0.7c-1.1-0.5-2.6-1.7-4.5-3.8c-1.7-1.9-2.8-3.5-3.4-4.8c-0.5-1.3-0.8-3-0.8-5.3
	C208.1,218.1,211.1,213.5,217.2,210.8z M292.9,241.2c1.3-2.2,2.1-3.3,2.4-3.4c0.3-0.1,0.5,0.3,0.6,1.2c0,0.1,0,0.3,0.1,0.5
	c0.4,2.3-0.7,5.2-3.1,8.7c-2.4,3.5-5.1,5.9-8.1,7.3c-10.2,4.9-18.9,3.1-26.3-5.3c-4.1-4.6-5-6.9-2.7-6.9c0.8,0,1.2,0.3,1.2,1
	c0,0.6,1.7,1.9,5,3.9c5.2,2.9,11,3.6,17.3,2.1C285.7,249,290.2,245.9,292.9,241.2z M318.6,244c2.2-1.5,4.7-2.1,7.4-1.8
	c2.7,0.3,5.1,1.5,7.1,3.5c3.9,3.9,4.4,8.4,1.7,13.6c-2.1,4-5.6,5.8-10.4,5.2c-4.9-0.6-8.2-3.1-9.9-7.5c-0.7-1.9-0.7-4.2,0.2-7
	C315.6,247.2,316.9,245.2,318.6,244z M215.3,251.9c3.2-3.1,6.7-4.3,10.6-3.4c3.9,0.9,6.5,3.4,7.9,7.7c1.2,3.7,0.8,7-1.4,9.9
	c-2.1,2.9-5.2,4.3-9.2,4.3c-2.8,0-4.9-0.3-6.2-1c-1.3-0.7-2.5-2-3.5-4C210.9,260.3,211.5,255.8,215.3,251.9z M68,199.2
	c3.3-1.4,6.3-2,9.2-1.6c3.2,0.4,14.2,1.6,32.8,3.6c18.6,2,28.4,3,29.3,3c1.1,0,1.6,5.9,1.6,17.7v17.7h-2.9c-2.6,0-13.9-1.5-33.8-4.4
	c-19.9-2.9-31-4.8-33.4-5.5c-3.6-1.2-6.4-3.1-8.6-6c-2.2-2.8-3.3-5.9-3.3-9.3C58.8,207.2,61.8,202.1,68,199.2z M376.3,294.1
	c0.4-0.9,1.3-1.3,2.8-1c4.8,1,22.8,4.4,54.2,10.3c27.4,5.1,43.7,8.5,49,10.1c5.3,1.6,9.3,4.4,12,8.3c1.6,2.4,2.5,5.8,2.7,10.1
	c0.2,4.3-0.4,7.9-1.8,10.6c-1.3,2.6-3.2,4.8-5.8,6.8c-2.6,2-5.2,3.2-7.9,3.6c-3.1,0.5-21.4-2.5-54.8-8.8l-50.2-9.5l-0.4-19.5
	C375.9,302,376,295,376.3,294.1L376.3,294.1z"/>
</svg>
