<?xml version="1.0" encoding="iso-8859-1"?>
<!-- Generator: Adobe Illustrator 19.0.0, SVG Export Plug-In . SVG Version: 6.00 Build 0)  -->
<svg version="1.1" id="Layer_1" xmlns="http://www.w3.org/2000/svg" xmlns:xlink="http://www.w3.org/1999/xlink" x="0px" y="0px"
	 viewBox="0 0 291.84 291.84" style="enable-background:new 0 0 291.84 291.84;" xml:space="preserve">
<g>
	<g>
		<g>
			<path d="M279.766,212.843h-18.462v-32.308h-9.231v4.615h-13.846v-46.154h23.077c2.183,0,21.48-0.332,27.208-11.783l3.328-6.665
				l-7.454-0.014c-0.337,0-33.365-0.342-46.158-19.906v-12.4h9.231c2.183,0,21.48-0.332,27.208-11.783l2.917-5.834l-6.471-0.808
				c-0.346-0.042-34.837-4.578-47.386-25.486l-1.348-2.243H69.462l-1.343,2.238C55.611,65.159,21.078,69.757,20.728,69.797
				l-6.462,0.822l2.912,5.825c5.723,11.451,25.02,11.783,27.203,11.783h9.231v12.402C40.818,120.195,7.79,120.536,7.454,120.536
				L0,120.549l3.332,6.665c5.723,11.451,25.02,11.783,27.203,11.783h23.077v46.154H39.766v-4.615h-9.231v32.308H12.074v-4.615H2.843
				v41.538h286.154v-41.538h-9.231V212.843z M252.074,194.38v18.462h-78.462V194.38H252.074z M192.074,157.458v27.692h-27.692
				v-27.692H192.074z M164.382,148.227v-9.231h27.692v9.231H164.382z M228.997,157.458v27.692h-27.692v-27.692H228.997z
				 M201.305,148.227v-9.231h27.692v9.231H201.305z M44.382,78.995c-2.987,0.001-8.119-0.562-12.365-2.044
				c12.074-3.032,31.897-10.154,42.572-25.648h142.662c10.666,15.48,30.471,22.606,42.545,25.643
				c-4.237,1.472-9.355,2.04-12.337,2.049H132.074h-9.231H44.382z M228.997,88.227v9.231h-60v-9.231H228.997z M159.766,88.226v9.231
				h-27.692v-9.231H159.766z M122.843,88.227v9.231h-60v-9.231H122.843z M30.535,129.766c-2.404,0-6.189-0.364-9.789-1.274
				c12.245-2.072,29.862-7.602,39.817-21.803h62.28h9.231h99.203c9.946,14.188,27.535,19.722,39.78,21.794
				c-3.586,0.909-7.357,1.278-9.752,1.283H30.535z M155.151,157.458v27.692h-18.462v-27.692H155.151z M136.689,148.227v-9.231
				h18.462v9.231H136.689z M164.382,194.382v18.462h-36.923v-18.462H164.382z M99.766,148.227v-9.231h27.692v9.231H99.766z
				 M127.458,157.458v27.692H99.766v-27.692H127.458z M62.843,148.227v-9.231h27.692v9.231H62.843z M90.535,157.458v27.692H62.843
				v-27.692H90.535z M39.766,194.382h78.462v18.462H39.766V194.382z M104.382,240.536H12.074v-18.462h23.077h69.231V240.536z
				 M178.228,240.536h-64.615v-18.462h64.615V240.536z M279.766,240.534h-92.308v-18.462h69.231h23.077V240.534z"/>
			<rect x="108.997" y="166.688" width="9.231" height="9.231"/>
			<rect x="72.074" y="166.688" width="9.231" height="9.231"/>
			<rect x="173.612" y="166.688" width="9.231" height="9.231"/>
			<rect x="210.535" y="166.688" width="9.231" height="9.231"/>
			<rect x="81.305" y="60.534" width="9.231" height="9.231"/>
			<rect x="99.766" y="60.534" width="9.231" height="9.231"/>
			<rect x="118.228" y="60.534" width="9.231" height="9.231"/>
		</g>
	</g>
</g>
<g>
</g>
<g>
</g>
<g>
</g>
<g>
</g>
<g>
</g>
<g>
</g>
<g>
</g>
<g>
</g>
<g>
</g>
<g>
</g>
<g>
</g>
<g>
</g>
<g>
</g>
<g>
</g>
<g>
</g>
</svg>
