<?xml version="1.0" encoding="utf-8"?>
<!-- Generator: Adobe Illustrator 23.0.5, SVG Export Plug-In . SVG Version: 6.00 Build 0)  -->
<svg version="1.1" id="图层_1" xmlns="http://www.w3.org/2000/svg" xmlns:xlink="http://www.w3.org/1999/xlink" x="0px" y="0px"
	 viewBox="0 0 256 256" style="enable-background:new 0 0 256 256;" xml:space="preserve">
<g>
	<g>
		<path d="M56.3,212.2c-2.8,1.5-5.2,2.9-7.8,4.1c-7.6,3.5-13.8,1.9-18-5.2c-7.7-12.9-15.2-25.8-22.4-38.9
			c-4.7-8.5-2.8-14.7,5.6-19.9c1.8-1.1,3.7-2.3,5.9-3.6c-2.1-13.5-2.5-27,0.2-40.9c-1.8-1.2-3.7-2.2-5.4-3.5
			c-1.9-1.4-3.8-2.7-5.4-4.3c-3.2-3.2-4-7.2-2.7-11.6c0.5-1.6,1.1-3.2,1.9-4.6c7.3-12.7,14.5-25.4,22-38c1.4-2.4,3.5-4.5,5.7-6.1
			c3.7-2.7,7.9-2,11.9-0.2c2.9,1.3,5.6,2.9,8.6,4.4C66.9,34.9,78.8,28.3,92,23.2c0-1.7-0.1-3.4,0-5c0.1-1.8,0.1-3.7,0.5-5.5
			C93.8,5.5,97.8,2,105.1,1.7c3.7-0.2,7.3,0,11,0c11.2,0,22.3,0,33.5,0c2,0,4,0.3,5.9,0.6c5.5,1,8.3,4.7,9,10
			c0.5,3.4,0.4,7,0.7,10.9C178,28,190,34.6,201,43.8c2.2-1.2,4.3-2.4,6.5-3.6c8-4.2,15.1-2.6,19.7,5.2c7.5,12.7,14.9,25.6,22.1,38.6
			c4.6,8.3,2.7,14.5-5.3,19.6c-2,1.2-4,2.4-6,3.7c0.5,6.9,1.4,13.7,1.4,20.5c0,6.8-0.9,13.6-1.5,21c1.6,1,3.7,2.3,5.8,3.6
			c2.9,1.8,5.4,3.9,6.8,7.1c2,4.4,1,8.5-1.3,12.4c-5.8,10.1-11.6,20.2-17.4,30.3c-1.8,3.2-3.6,6.4-5.6,9.5c-3.8,5.8-9,7.8-15.5,5.6
			c-6.7-2.3-11.9-6.5-15.1-12.8c2.4-4,4.1-4.6,7.7-2.9c2.4,1.1,4.6,2.6,7,3.9c1.6,0.9,3.2,1.6,5.2,2.6c1.1-1.3,2.2-2.4,2.9-3.6
			c6.9-11.8,13.8-23.6,20.5-35.4c1-1.7,1.4-3.6,2.2-5.6c-4.9-3.1-9.6-6.1-14.6-9.3c0.4-3.7,0.7-7.3,1.2-10.9
			c1.8-11.6,1.6-23.2-0.7-34.8c-0.2-1.1-0.3-2.3-0.3-3.5c0-1,0.3-1.9,0.6-3.4c4.3-2.8,8.7-5.6,13.7-8.8c-0.6-1.8-1-3.8-1.9-5.4
			c-6.8-11.9-13.6-23.7-20.5-35.5c-0.7-1.3-1.7-2.3-2.7-3.6c-6.3,1.5-10.6,6.9-17.6,7.3c-12.3-11.3-26.8-19.7-43-24.7
			c-1.7-6.1,0.5-12.3-1.4-17.8c-5.1-1.7-45.7-1.8-50.7-0.2c-2.1,5.6,0.7,11.9-2.2,18c-15.6,5.2-30,13.2-42.7,25.1
			c-2.9-1.2-5.7-2.2-8.3-3.5c-2.7-1.3-5.2-2.9-8.2-4.5c-1.1,1.2-2.3,2.2-3,3.4C31.5,64,24.3,76.8,17,89.5c-0.3,0.6-0.5,1.2-0.8,2.1
			c3.1,5.5,10.4,5.7,14.2,11.2c-0.3,2.7-0.4,5.8-0.9,8.9c-2,12.5-1.3,24.9,0.5,37.3c0.5,3.8-0.6,6.1-3.7,7.9
			c-1.6,0.9-3.2,1.7-4.8,2.7c-1.9,1.2-3.7,2.6-5.5,3.9c1.5,5.3,22.1,40.7,25.5,44.1c5.8-1.6,10.3-6.6,16.1-7.1
			c7.2,5,13.8,10.2,20.9,14.4c7,4.1,14.6,7.1,22.4,10.7c3.3,5.2,0.1,11.8,2.3,17.4c4,1,45,1.2,50.5,0.2c2.2-5.3,0-11.3,1.4-17.4
			c7.2-3.1,14.6-6.3,22-9.5c2.7,2.3,5,4.4,5.3,8.1c-5.1,4.1-11.6,5.5-17.8,8.8c0,2.6,0.2,5.4,0,8.2c-0.6,8.9-4.8,12.8-13.8,13
			c-5.2,0.1-10.3,0-15.5,0c-9.2,0-18.3,0-27.5,0c-1.8,0-3.7-0.1-5.5-0.5c-5.7-1.1-9.2-4.5-10-10.3c-0.5-3.4-0.6-6.9-0.9-10.9
			C79,227.8,66.9,221.1,56.3,212.2z"/>
		<path d="M99.7,201.7c1.5-2.9,2.6-4.9,3.9-7.3c1.8,0.3,3.6,0.5,5.3,1c11.8,3.2,23.6,4.2,35.5,1.1c28-7.1,48.3-28.7,52.5-57.7
			c5-34.5-18-70.4-56.7-77.2c-37.7-6.6-74.2,19.9-79.4,57.8c-3.2,23.3,4.2,43.4,20.8,60c1.3,1.3,2.4,2.6,3.9,4.2
			c-1.3,2.4-2.5,4.5-3.6,6.3c-3.3,1-4.7-1.2-6.4-2.7c-9.5-8.7-16.5-19.1-20.8-31.3c-15.4-43.7,9.1-89.3,51.4-102
			c43.3-13.1,88.7,13.1,99.2,57.3c10.6,44.5-18.7,88.3-64,95.8c-12.2,2-24.2,1.1-36-2.8C103.7,203.8,102,202.8,99.7,201.7z"/>
		<path d="M91.6,129.9c6.1,6.3,12.1,12.5,18.3,19c-0.2,3.5-2.5,5.6-6.2,7.4c-9-8.5-18-17-27.2-25.6c0.8-1.3,1.2-2.4,2-3.2
			c8-7.6,16-15.1,24-22.6c0.5-0.4,1.1-0.7,1.7-1.2c3,1.5,5.1,3.6,6.3,7.2C104.7,117.7,97.6,123.3,91.6,129.9z"/>
		<path d="M153.8,103.9c8.9,8.3,17.9,16.8,26.9,25.2c-1.8,3.6-19.6,20.9-27,26.5c-3.6-0.2-4.9-3.4-7.2-6
			c5.7-7.3,13.2-12.7,19.5-19.8c-6.3-6-12.6-12.1-18.8-18.1C148.1,107.3,149.6,105.5,153.8,103.9z"/>
		<path d="M114.8,155.2c0-4.3,13.5-41.8,18.3-51.2c4.4-1.7,6.9-1.6,10.7,0.8c-6.5,16.9-13.1,33.8-19.6,50.6
			C120.8,156.5,118,156.7,114.8,155.2z"/>
	</g>
</g>
</svg>
