<svg id="图层_1" data-name="图层 1" xmlns="http://www.w3.org/2000/svg" viewBox="0 0 244.15 248.35"><title>minami</title><path d="M12.1,118.3c0,1.9.1,3.8,0,5.7-.1,1.6-.9,3.1-.7,4.7.1.5-.2,1.1-.2,1.7a8.64,8.64,0,0,1-1-1.6,7.49,7.49,0,0,1-.2-2.1c.2-4.3.4-8.7.7-13,.1-1.5.8-2.8.8-4.4a13.92,13.92,0,0,1,.7-4.4c.3-1.4.5-3,.8-4.3.5-2.1,1.4-4.1,1.3-6.3.4-.3,1-.4,1.1-.8.5-2.4,2.1-4.5,2-8,0-.3-.1-.1-.2.2v.7c.2-.2.6-.3.7-.5s-.1-.6-.5-.4a5.45,5.45,0,0,0-1.7,3.9,1.72,1.72,0,0,1-1.4,2c-.5-2.4.7-4.6,1.5-6.6,2-4.8,3.8-9.7,6.4-14.3C25.1,65.2,28.3,60,31.7,55c2.2-3.3,5-6.1,7.6-9.1s5.2-5.9,7.9-8.6c4.1-4.1,8.8-7.4,13.5-10.9A114.12,114.12,0,0,1,77.8,16.1,57.32,57.32,0,0,1,87.7,12c2.1-.6,4.1-1.6,6.3-2.3,1.8-.6,3.7-.8,5.5-1.5s3.8-.8,5.6-1.3c3.4-1.1,7-.7,10.3-2h.4c3.3.5,6.5-.8,9.8-.7h9.7c1.6,0,3,1,4.8.8a11.6,11.6,0,0,1,4.8.5c1.7.4,3.6.6,5.4.9a114.93,114.93,0,0,1,13.2,3,56.46,56.46,0,0,1,7.3,2.3c2.3,1,4.7,1.6,6.8,2.7,4.3,2.2,8.7,4.1,12.8,6.6,3.7,2.2,7.2,4.6,10.8,7a45.87,45.87,0,0,1,4.4,3.3,149.62,149.62,0,0,1,16.7,16.1,89.76,89.76,0,0,1,10.5,14c4,6.5,7.8,12.9,10.4,20.2,1.9,5.4,3.6,10.8,5,16.3.5,2,.9,4,1.3,5.9s.6,3.9.9,5.8c.6,3,.8,6.1,1.2,9.2.5,3.3.1,6.7.1,10.1v9.7c0,2.6-1.3,5-.7,7.6-.5.1-1.2-.3-1.4.5-.5,1.8-.8,3.7-1.2,5.5-.5,2.1-1,4.3-1.6,6.4-.2.5-.7,1.7.7,2v.7c-.5.1-1.3-.3-1.4.5,0,.6-.5,1.5.7,1.6a17.56,17.56,0,0,1-1.6,7.6,169.24,169.24,0,0,1-9,19.3c-2.7,4.6-5.3,9.2-8.9,13.3a50.86,50.86,0,0,0-3.1,4.5c-1.5,2.1-3.8,3.3-5.2,5.7s-3.8,3.9-5.7,6c-.8.9-1.7.7-2.6.7v-1.4c.5-.2,1.2-.2,1.5-.5,1.2-1.1,2.4-2.3,3.5-3.5.5-.6.9-1.3,1.5-1.9s1.4-1,2-1.6c.2-.2.1-.6.1-.9a1.88,1.88,0,0,1-.8.2,5.85,5.85,0,0,1-1.3.2c.9-1.3,1.8-2.6,2.8-3.8.3-.4,1-.4,1.5-.5v.7a1.42,1.42,0,0,0,.2.6,2.65,2.65,0,0,0,.5-.6c.1-.2,0-.5,0-.7l.7-.7a1.42,1.42,0,0,1,.6-.2c-.2-.2-.4-.3-.6-.5,0-2,0-2,1.4-2.2v.7a1.42,1.42,0,0,0,.2.6,2.65,2.65,0,0,0,.5-.6c.1-.2,0-.5.2-1,.1-.2-.1-.1-.2,0l.3.3c.1-.1.2-.3.3-.4s-.1-.1-.4.1a1.48,1.48,0,0,1-.9.3c.3-1.9.9-2.7,2.2-2.9v.7a1.42,1.42,0,0,0,.2.6,2.65,2.65,0,0,0,.5-.6c.1-.2,0-.5,0-.7l.7-.7c1.1-.3,1.6-1,1.7-2.5.1-.2-.1-.1-.2,0l.3.3c.1-.1.2-.3.3-.4s-.1-.1-.4.1a2.37,2.37,0,0,0-1.7,2.5l-.7.7h-.7c.1-.7-.1-1.6.3-2a67.37,67.37,0,0,0,7.3-11.7c2-4,4.5-7.8,5.9-11.9s3.6-8.3,3.7-12.9c1.7-3.4,1.7-7.2,2.8-10.7.9-3.3.7-6.8,1.5-10.2a30.88,30.88,0,0,0,.1-4.3c.1-1.4.5-2.7.7-4V118.9c.4-3.6-1.1-7-.9-10.6,0-.1-.4-.2-.6-.2-.1-1.4-.2-2.8-.2-4.2-1.1,1.3-.2,2.8-.5,4.2l-.7.7a13.33,13.33,0,0,0,0-2,8.4,8.4,0,0,1-.7-1.7v-1.6c-.1-.4-.3-.7-.4-1.1a3.18,3.18,0,0,0-.3.9v2.1a.66.66,0,0,0,.4.5c.1-.1.3-.2.3-.4V105c0,1.8-.1,2.7,0,3.6,0,.3.4.6.7.9v4.9c0,.3.4.6.7.9v4.2c0,.3.4.6.7.9v12.3c-.3,1.2.5,2.6-.5,3.8s.3,2.3-.1,3.7a32.16,32.16,0,0,0-1,5.4c-.2,1.6,0,3.4-.7,4.7-1.1,2.3-1.2,4.8-1.9,7.1-.9,2.9-1.8,5.8-2.7,8.6s-1.6,5.8-3.1,8.4c-1,1.8-1.4,4-2.2,5.9-1.5,3.2-3.1,6.4-4.8,9.5A88.21,88.21,0,0,1,225,198a75.62,75.62,0,0,1-7.4,9.5c-5.4,5.6-10.8,11.3-17.1,15.9a109.57,109.57,0,0,1-13.6,8.9c-1.1-.1-.6-.9-.7-1.4,2.4-1.7,4.7-3.4,7.1-5.1s4.9-3.4,7.2-5.3,4.3-3.7,6.3-5.6,3.9-3.9,5.9-5.9c.5-.5,1.1-1,1.5-1.5.7-.9,0-1.8-1.3-1.9h-.7a28.7,28.7,0,0,1,4.3-6.2,75.57,75.57,0,0,0,6.4-8.5q3.45-5.7,6.6-11.7a107.41,107.41,0,0,0,5.9-14.9c1.4-4.1,2.2-8.4,3.4-12.6a58.18,58.18,0,0,0,.8-6.2c.4-2.5.4-5.1.8-7.6.2-1.1.7-1.9,0-3.1-.3-.6.6-1.7.6-2.5q.15-5.25,0-10.5c0-.9-.6-1.7-.6-2.6,0-.7.8-1.6.6-2.2-.8-2.3-.3-4.7-.8-6.9a25.83,25.83,0,0,1-.6-3.7,17.67,17.67,0,0,0-.8-3.3,65.35,65.35,0,0,0-2-8.5c-1.1-3.2-1.7-6.5-3-9.6a14.58,14.58,0,0,1-.7-1.9c-1.4-3-2.7-6.1-4.2-9.1a83.13,83.13,0,0,0-7.2-12.2c-2.8-4-6-7.9-8.8-11.9-1.7-2.4-4.1-3.6-6-5.7s-3.6-4.4-6.3-5.7c-4.1-4.3-9.2-7.3-14.1-10.4A84.36,84.36,0,0,0,175,22c-5-2.1-10.1-4.1-15.3-5.8-2.5-.8-5-1.2-7.5-2-3-1-6.4-.5-9.2-2.1-.2-.1-.5,0-.7,0-7.4-.1-14.7-1.2-22.1-.7-1.2.1-2.4.6-3.7.7-1.8.2-3.5.9-5.5.8a22.57,22.57,0,0,0-5.7.9,45.56,45.56,0,0,0-5.3,1.3c-5,1.8-10.3,2.9-15.1,5.3-3.7,1.8-7.5,3.5-11.1,5.5a105.7,105.7,0,0,0-14.5,9.4A122.57,122.57,0,0,0,46.6,46.5c-.7.7-1.7,1.1-2.5,1.8-.6.6-.9,1.6-1.6,2.2a43.73,43.73,0,0,0-5.9,7.7c-.7,1.2-2.4,1.7-2.3,3.4C31,65,29.4,69.4,27.1,73.4c-1.9,3.3-3.3,6.8-5,10.2-2,0-2,0-2.2,1.4-1.4.3-.4,1.5-.7,2.2-1.1.1-.6.9-.7,1.4-1.4.3-.4,1.5-.7,2.2-.2.3-.7.6-.7.9a24.32,24.32,0,0,0,0,2.7c-1.4.3-.4,1.5-.7,2.2-.2.3-.6.5-.7.9a13.33,13.33,0,0,0,0,2c-1.7,1.6-1.4,3.7-1.4,5.8-.2.2-.7.3-.7.6-.1.8.3,1.8-.1,2.4-1,1.6-.1,3.5-.8,5C11.9,115,12.2,116.7,12.1,118.3Zm206.8,81.6c-.1.1-.3.2-.4.3l.3.3c.1-.1.2-.3.3-.4s-.1-.1-.6.4a2.47,2.47,0,0,0-.7,1.2c-.1-.1-.2-.3-.4-.5a9.06,9.06,0,0,0-1.1,1.6,1,1,0,0,0,.6.5c1.2.1.7-.9.8-2.1C218,201.1,218.2,200.8,218.9,199.9ZM231.8,68.5h.3c-.1-.2-.1-.4-.2-.5a2.27,2.27,0,0,1-.4.1,7.31,7.31,0,0,0,1.4,1.2c-.1-.2-.3-.5-.4-.7l-.3.3c.1.4.3.7.4,1.1C232.7,69.7,232.8,69.6,231.8,68.5Zm-1.2-3.1c-.1-.1-.2-.3-.3-.4l-.3.3c.1.1.3.2.4.3s.1-.1-.4-.6c-.1-.5.4-1.4-1-1.4h.3c-.1-.2-.1-.4-.2-.5a2.27,2.27,0,0,1-.4.1,1,1,0,0,0,.7.4C229.4,64,228.9,64.9,230.6,65.4Zm-5.3-7.7h.3c-.1-.2-.1-.4-.2-.5a2.27,2.27,0,0,1-.4.1,1,1,0,0,0,.7.4c.1.5-.4,1.4,1.4,1.9-.1-.1-.2-.3-.3-.4l-.3.3c.1.1.3.2.4.3s.1-.1-.4-.6C226.3,58.6,226.7,57.8,225.3,57.7ZM209.5,39h.3c-.1-.2-.1-.4-.2-.5a2.27,2.27,0,0,1-.4.1,1,1,0,0,0,.7.4c.1.5-.4,1.4,2.5,1.9-.6-.2-.8-.4-1.1-.4h-.7c.2.2.3.6.5.7s.6-.1-.5-.7C210.4,39.9,210.9,39,209.5,39Zm-2.9-2.2h.3c-.1-.2-.1-.4-.2-.5a2.27,2.27,0,0,1-.4.1c.1.1.2.3,2.4.9-.6-.2-.8-.4-1.1-.4h-.7c.2.2.3.6.5.7S208,37.4,206.6,36.8Zm30.8,44.3c.3-.4.5-.5.5-.6a2.92,2.92,0,0,0-.2-.9,2,2,0,0,0-.5.1c0,.4.1.8,1.4,1.9-.1-.2-.3-.5-.4-.7l-.3.3c.1.4.3.7.4,1.1C238.4,82,238.5,81.8,237.4,81.1ZM18.7,83.6c-.2-.3-.3-.5-.5-.6-.1.2-.4.3-.4.5a3.18,3.18,0,0,0,.3.9c.2-.2.3-.4.9-3.1-.2.6-.4.8-.4,1.1v.7c.2-.2.6-.3.7-.5C19.3,82.2,19.1,81.9,18.7,83.6Zm222.8,7.3c.3.7-.7,1.8.7,3.6v.3c.1.4.3.7.4,1.1.1-.4.2-.8.3-1.3a3.35,3.35,0,0,0,0-1,.66.66,0,0,0-.4-.5c-.1.1-.3.2-.3.3v-.3c-.2-.7.7-1.9-.7-2.2-.3-.7.7-1.8-.7-2.2-.3-.7.7-1.8-1.2-1.9.3-.4.5-.5.5-.6a2.92,2.92,0,0,0-.2-.9,2,2,0,0,0-.5.1,1.16,1.16,0,0,0,.6,1.1c.3.7-.7,1.8.7,2.2C241.1,89.5,240.1,90.6,241.5,90.9Zm1.3,6.8a11.73,11.73,0,0,0,.5,1.1,2.12,2.12,0,0,0,.3-.7c-.1-.5-.3-1-.4-1.4-.1.3-.3.6.4,3.5v.3c.1.4.3.7.4,1.1.1-.4.2-.8.3-1.3a3.35,3.35,0,0,0,0-1,.66.66,0,0,0-.4-.5c-.1.1-.3.2-.3.3C243.7,99.5,243.7,99.9,242.8,97.7ZM174.7,15.6c-.6-.2-.8-.4-1.1-.4h-.7c.2.2.3.6.5.7s.6-.1-.5-.7a16.44,16.44,0,0,0-2.2-1.4c-.6-.2-1.2-.5-1.8-.7-.3-.1-.6.1-.9.2.2.2.3.6.5.7.7.2,1.5.3,2.3.5C171.2,15.8,172.3,14.9,174.7,15.6ZM159.6,10a4.67,4.67,0,0,1-1,.5c.3.1.7.1.9.3,1.3,1.1,3.1.6,4.5,1.4.2.1.6-.2.9-.3-.2-.3-.4-.7-.6-.7C162.8,10.8,161.3,10.4,159.6,10Zm-5.4-1.3c-.2,0-.5-.1-.7,0a2.65,2.65,0,0,0-.6.5,1.42,1.42,0,0,0,.6.2h1.1c.2,0,.3.4.5.4,1.4.5,3,0,2.6-.2-1-.5-1.8-1.4-3.1-1A.6.6,0,0,1,154.2,8.7Zm-6.6-.8a7,7,0,0,0,1.4-.3c-.5-1-1.4-.3-2.1-.4a10.82,10.82,0,0,0-1.8,0c-.1,0-.3.2-.2.2a2.19,2.19,0,0,0,.3.5A18.55,18.55,0,0,0,147.6,7.9Zm97.5,89.9v1.4c0,.1.3.2.5.3V96.9c-.2.1-.4.1-.5.3Zm.8,3.8v.7a3.55,3.55,0,0,0,.4.9,3.18,3.18,0,0,0,.3-.9,3.3,3.3,0,0,0,0-1.4c0-.2-.2-.4-.3-.6-.1.2-.3.4-.3.6C245.8,101.1,245.9,101.3,245.9,101.6ZM150.8,7.8a5.55,5.55,0,0,0-.8.6c.3.1.6.3.9.2s.7-.3,1-.4C151.6,8.1,151.3,8,150.8,7.8Zm92.8,84.8c.2.4.3.8.5,1.2a3.18,3.18,0,0,0,.3-.9,7.89,7.89,0,0,0-.3-1.3A9.29,9.29,0,0,0,243.6,92.6ZM167.2,12.8c-.2-.3-.3-.6-.4-.5a2.92,2.92,0,0,0-.9.2,2.19,2.19,0,0,0,.3.5A4.4,4.4,0,0,0,167.2,12.8Zm71.9,70.1c-.2.3-.4.5-.4.6a3.18,3.18,0,0,0,.3.9c.1-.2.3-.4.3-.5A4.4,4.4,0,0,0,239.1,82.9ZM213.4,42.5a5.92,5.92,0,0,0-.4-.6,3.18,3.18,0,0,0-.3.9.85.85,0,0,0,.3.5A5.9,5.9,0,0,0,213.4,42.5Zm22.3,33.9a5.94,5.94,0,0,1,.4.8c.1-.2.4-.4.3-.5a3.18,3.18,0,0,0-.3-.9A5.92,5.92,0,0,0,235.7,76.4ZM20.1,80a5.92,5.92,0,0,0-.4-.6,3.18,3.18,0,0,0-.3.9.85.85,0,0,0,.3.5A2,2,0,0,1,20.1,80ZM175.2,16.3l.3.3c.1-.2.2-.3.2-.5a.22.22,0,0,0-.2-.2C175.4,16,175.3,16.2,175.2,16.3Zm1.8.9.3-.3c-.2-.1-.3-.2-.5-.2a.22.22,0,0,0-.2.2C176.7,17,176.9,17.1,177,17.2Zm9,4.1-.2-.2c-.2,0-.3.1-.5.2l.2.2C185.7,21.5,185.8,21.4,186,21.3Zm.9.4-.3.3c.2.1.3.2.5.2a.22.22,0,0,0,.2-.2C187.3,21.9,187.1,21.8,186.9,21.7Zm2.3,1.4-.2.2c0,.2.1.3.2.5l.2-.2A.76.76,0,0,0,189.2,23.1Zm1.5.7-.2.2c0,.2.1.3.2.5l.2-.2C190.8,24.1,190.7,24,190.7,23.8Zm4.7,3.9c.1.2.2.3.3.5l.2-.2c0-.2-.1-.3-.2-.5C195.6,27.5,195.5,27.6,195.4,27.7Zm1.5.9.3.3c.1-.2.2-.3.2-.5a.22.22,0,0,0-.2-.2A1.38,1.38,0,0,0,196.9,28.6Zm1.4,1.4.3.3c.1-.2.2-.3.2-.5a.22.22,0,0,0-.2-.2C198.5,29.7,198.4,29.9,198.3,30Zm2,.6-.3-.3c-.1.2-.2.3-.2.5a.22.22,0,0,0,.2.2C200.1,30.9,200.2,30.7,200.3,30.6Zm1.3,1.8.3-.3c-.2-.1-.3-.2-.5-.2a.22.22,0,0,0-.2.2A1.38,1.38,0,0,0,201.6,32.4Zm1.4.7.3-.3c-.2-.1-.3-.2-.5-.2a.22.22,0,0,0-.2.2C202.7,32.9,202.9,33,203,33.1Zm28.4,33.6-.2-.2c-.2,0-.3.1-.5.2l.2.2A.76.76,0,0,0,231.4,66.7Zm5.5,11.8.3-.3c-.2-.1-.3-.2-.5-.2a.22.22,0,0,0-.2.2A.54.54,0,0,0,236.9,78.5Zm-214.1.6c-.1-.2-.2-.3-.3-.5l-.2.2c0,.2.1.3.2.5C22.6,79.3,22.7,79.2,22.8,79.1ZM236.1,186.2l-.2.2c0,.2.1.3.2.5l.2-.2A.76.76,0,0,0,236.1,186.2Zm1.1-1.1-.2-.2c-.2,0-.3.1-.5.2l.2.2C236.9,185.3,237,185.2,237.2,185.1Zm-2.4,4.6.3-.3c-.2-.1-.3-.2-.5-.2a.22.22,0,0,0-.2.2A1.38,1.38,0,0,0,234.8,189.7Zm.3-1.8c.1.2.2.3.3.5l.2-.2c0-.2-.1-.3-.2-.5C235.3,187.7,235.2,187.8,235.1,187.9Zm-1.5,3.7-.2-.2c-.2,0-.3.1-.5.2l.2.2C233.3,191.8,233.4,191.7,233.6,191.6Zm-.7,1.4-.2-.2c-.2,0-.3.1-.5.2l.2.2C232.6,193.2,232.7,193.1,232.9,193Z" transform="translate(-7.7 -4.19)"/><path d="M56.8,179.8V165.7c0-1.7.6-2.4,2.3-2.6a5.35,5.35,0,0,1,5.6,2.7c1.6,3.2,3.9,5.8,5.5,8.9,1,1.8,2.1,3.5,3.2,5.2a3.13,3.13,0,0,0,.9,1.1,1.39,1.39,0,0,0,2-.5c1.3-3.2,3.8-5.6,5.4-8.6,1.3-2.5,3.3-4.6,4.7-7.1a3.49,3.49,0,0,1,2.6-1.7,6.78,6.78,0,0,1,4.4.7c.3.2.4.8.4,1.3v28.1c0,1.8-.5,2.3-2.2,2.3H86.9c-.1-1.5-.3-3-.3-4.6V180.1a3.55,3.55,0,0,0-.2-1,3.59,3.59,0,0,0-1,.7c-1.1,1.5-2.1,3-3.1,4.5-2,3-4,6-5.8,9.1-.6,1.1-1.4.8-2,.5a5.88,5.88,0,0,1-1.7-1.8c-2.7-4-4.9-8.4-7.9-12.2-.2-.3-.2-.6-.4-.9-.1.3-.3.6-.4.9v10.4c0,5.8.4,5.2-5.1,5.2H57.9c-.8.1-1-.3-1-1C56.8,189.6,56.8,184.7,56.8,179.8Z" transform="translate(-7.7 -4.19)"/><path d="M157.8,185.8v-7.9c0-2.2.5-2.6,2.8-2.6a3.4,3.4,0,0,1,1.4.2c2.5.8,2.4.8,5.4,0a7.52,7.52,0,0,1,6.5,1.2,2.21,2.21,0,0,0,3.1.1,10,10,0,0,1,3.4-1.3,9.35,9.35,0,0,1,6.9,1.3c1.2.6,2.2,2.4,3,4.2a9.37,9.37,0,0,1,.7,3.7c0,2.5.1,5.1,0,7.6-.1,1.1.8,3-.5,3.1-2,.2-4.4,1.1-6-1a3.08,3.08,0,0,1-.6-1.9c-.1-2.5,0-5.1,0-7.6a3.24,3.24,0,0,0-3-3.1,3.3,3.3,0,0,0-2.7,3c0,3.1-.1,6.3,0,9.4,0,1.2-.4,1.4-1.5,1.3s-2.4,0-3.6,0c-1.6,0-2.1-.6-2.2-2.1v-8.3a2.89,2.89,0,0,0-2.4-3.2,1.73,1.73,0,0,0-1,.1,4.15,4.15,0,0,0-3.1,4.4v7.9c0,1-.3,1.2-1.2,1.2-1.7-.1-3.3-.1-5-.1-.1-1.6-.2-3.3-.3-4.9S157.8,187.4,157.8,185.8Z" transform="translate(-7.7 -4.19)"/><path d="M110.9,185.8v-7.9c0-2.2.5-2.7,2.8-2.5a4.71,4.71,0,0,1,1.6.4c2.2.9,2.3,1.2,4.3.2,3-1.5,5.6-.3,8.1.9a5.55,5.55,0,0,1,2.5,3.1,14.16,14.16,0,0,1,.8,5c.1,3.1,0,6.2.1,9.4,0,1-.4,1.2-1.3,1.2-1.3-.1-2.6,0-4,0s-2-.6-2-2.2c0-2.9-.1-5.8,0-8.6.1-1.8-1.3-1.9-2.3-2.6-1.3-1-2.1.5-3.2.6a2.68,2.68,0,0,0-.3,1.3v9c0,2.4-.3,2.6-2.7,2.6-1.4,0-2.9-.1-4.3-.1-.1-1.4-.2-2.8-.2-4.2C110.9,189.4,110.9,187.6,110.9,185.8Z" transform="translate(-7.7 -4.19)"/><path d="M152.8,186.6v5a10.1,10.1,0,0,0,.3,1.7c.4,1.3,0,2.2-1.1,2.2-1.5-.1-3,.3-4.5-.4s-3.3.4-4.8.9c-2.3.7-7.2-1.9-7.9-3.7a6.49,6.49,0,0,1,0-3.9,6.07,6.07,0,0,1,2.1-2.9c2.2-1.8,5-2.5,7.8-3,.3-.1.6-.5.9-.7-.3-.2-.7-.7-1-.7a38.9,38.9,0,0,0-4.7.9c-2,.5-2.1.5-3.2-.7s-.5-2.3-.4-3.4c.1-.7,1-1.1,1.9-1.2,1.9-.3,3.7-1.1,5.5-1.3a8.66,8.66,0,0,1,5.4.9c2.4,1.4,3.9,3.1,3.7,6C152.7,183.7,152.8,185.2,152.8,186.6Zm-6.4,2c-.1-.4-.2-.8-.3-.8a8.85,8.85,0,0,0-3.3.3c-.7.3-1.8.9-1.4,2.1.4,1,1.5,1.2,2.9.5a4.35,4.35,0,0,0,1.5-.8A13.92,13.92,0,0,0,146.4,188.6Z" transform="translate(-7.7 -4.19)"/><path d="M166.2,62.6c-.8,1.4-1.3,2.5-2,3.5a39.91,39.91,0,0,1-8.5,7.9c-1.2.8-1,2.1-.4,3.1s.3,2.3.3,3.4c0,.1-.4.2-.6.3s-.6-.1-.6-.2a3.21,3.21,0,0,1-.1-1.4,1.64,1.64,0,0,0-1.2-1.9,2.36,2.36,0,0,0-2.6.5c-1,1.2-2.2,2.2-3.3,3.3-4.2,4.2-8.2,8.5-12.5,12.5-10.8,9.8-20.8,20.5-31.4,30.6-2.4,2.3-4.9,4.4-7.3,6.7-.7.7-1.1.6-1.8,0s-.8-1.1-.1-1.8a16.38,16.38,0,0,0,3.5-2.9c1.3-1.7,3-2.8,4.4-4.2,3.8-3.9,7.6-7.7,11.5-11.5,11.4-11.2,22.7-22.3,34.1-33.4a15.93,15.93,0,0,1,1.3-1.3c1.3-.9.9-1.6-.1-2.3a1,1,0,0,1-.2-.9c0-.2.5-.4.7-.3,2.5.4,4.2-.9,5.8-2.6,1.4-1.5,3-2.8,4.3-4.4,1.5-1.9,3.7-2.1,5.6-3.2C165.1,62,165.5,62.3,166.2,62.6Z" transform="translate(-7.7 -4.19)"/><path d="M202.6,225.1c.2-1.3,1-1.9,2.9-2.2v.7c-.2.1-.4.1-.5.2a2.27,2.27,0,0,1,.1.4,1.08,1.08,0,0,0,.4-.5c.2-.2.5-.1.7-.2a1.42,1.42,0,0,0,.6-.2,2.65,2.65,0,0,0-.6-.5c-.2-.1-.5,0-.7,0,1.2-2.9,4.2-4.3,6.2-6.5.2-.2.7,0,1,0-.7,1-1.4,1.9-2.2,2.9a22,22,0,0,0-2.3,2c-.2.2-.9.5-.2.9a3.35,3.35,0,0,0,1,0c-.2.5-.2,1.2-.5,1.6-1.2,1.1-2.5,2.1-3.7,3.1a86.28,86.28,0,0,1-14.3,9.8c-3,1.6-5.9,3.2-8.9,4.7-2.8,1.4-5.6,2.7-8.5,3.9a52.83,52.83,0,0,1-8.5,2.8c-1.9.5-3.8,1.4-5.8,1.6s-3.9,1-5.9,1.4c-2.5.5-5.2.2-7.6.9-4.6,1.2-9.2.3-13.8.6a4.05,4.05,0,0,1-1.1,0c-.2-.1-.5-.3-.7-.4l1.3-.3c3.3.4,6.6-.5,9.9-.9.1,0,.2-.4.2-.6h.7c2.9.5,5.8-.7,8.7-.7,1.2-.4,2.4-.7,3.6-1.1v-1.7h.7v.7c.3,1.4,1.5.4,2.2.7l.7-.7a13.33,13.33,0,0,0,2,0,2.76,2.76,0,0,0,.9-.7h2.2l.7-.7c.7-.3,1.8.7,2.2-.7.5-.1,1.4.4,1.4-.7V244l1.3-1c.5-.2,1-.3,1.5-.5,6.2-2.1,11.9-5.4,17.8-8.1.8-.4,2.3-.7,2.3-1,0-1.4,1.5-.8,1.9-1.7.5-1.1,1.6-.7,2.5-.8v.7a3.51,3.51,0,0,0-.7.9v-.2c-.2.1-.4.1-.5.2a2.27,2.27,0,0,1,.1.4,1.08,1.08,0,0,0,.4-.5,7.05,7.05,0,0,1,.7-.9c.4-.1.9,0,1.3-.3a2.55,2.55,0,0,0,.7-1,5.85,5.85,0,0,0-1.3-.2,6.42,6.42,0,0,1,1-1.3c.5-.3,1.1-.3,1.2.6a1.42,1.42,0,0,1,.2.6c.2-.2.3-.4.5-.6v-1c-.2-1.3.7-1.2,1.5-1.1v.7c-.2.1-.4.1-.5.2a2.27,2.27,0,0,1,.1.4,1.08,1.08,0,0,0,.4-.5c.5-.3,1.4.2,1.4-.9l.7-.7c.4-.1.9,0,1.3-.3a2.55,2.55,0,0,0,.7-1C203.4,225.3,203,225.2,202.6,225.1Zm-13,9.4c-.2.1-.5.3-.7.4l.3.3c.4-.1.7-.3,1.1-.4-.2-.1-.4-.2-1.4.7v-.3c-.2.1-.4.1-.5.2a2.27,2.27,0,0,1,.1.4C188.6,235.8,188.7,235.7,189.6,234.5Zm2.5-1.4-.2.2c0,.2.1.3.2.5l.2-.2A.76.76,0,0,0,192.1,233.1Z" transform="translate(-7.7 -4.19)"/><path d="M105.9,185.8v6.5c0,3.2,0,3.2-3.1,3.2h-1.1c-2.4,0-3.1-.7-3.1-3.3V177.9a2.41,2.41,0,0,1,2-2.5,14.72,14.72,0,0,1,2.1,0c2.9,0,3,.1,3,3C105.9,180.8,105.9,183.3,105.9,185.8Z" transform="translate(-7.7 -4.19)"/><path d="M202.6,185.8v5.4c0,1.4-.2,2.8-.2,4.2-1.9,0-3.8.1-5.7.1-.2,0-.5-.5-.5-.7-.2-1.5-.9-2.8-.8-4.4.2-3.8,0-7.7.1-11.5,0-2.4,1-3.4,3.3-3.5,3.2-.1,4.1-.5,3.9,4C202.5,181.5,202.6,183.6,202.6,185.8Z" transform="translate(-7.7 -4.19)"/><path d="M89,240.5a29.92,29.92,0,0,1-3.2-1c-3.2-1.4-6.5-2.8-9.7-4.3-2-1-3.9-2.2-5.8-3.4a5.35,5.35,0,0,1-1.3-1.3.85.85,0,0,1,0-.7c.2-.2.7-.5.9-.4a39,39,0,0,1,3.5,1.9,53.3,53.3,0,0,0,10.7,5.3c2.3.8,4.5,1.9,6.7,2.9.2.1.3.3.5.4-.2.1-.4.3-.6.3H88.9A.77.77,0,0,1,89,240.5Z" transform="translate(-7.7 -4.19)"/><path d="M198.2,163.8c3.2,0,4.3,1,4.4,3.2,0,1.8-1.9,4-3.6,4-1.4,0-3.8-2.4-3.6-4a4.89,4.89,0,0,1,1.3-2.7A2.87,2.87,0,0,1,198.2,163.8Z" transform="translate(-7.7 -4.19)"/><path d="M102.3,163.8c2.4,0,3.5,1.1,3.6,3.3a2.37,2.37,0,0,1-1.1,2.4,7.34,7.34,0,0,1-2.6,1.4c-1.5.2-3.6-2.4-3.5-4C98.8,164.9,100,163.8,102.3,163.8Z" transform="translate(-7.7 -4.19)"/><path d="M20,85.1c.1-1.4.1-1.4,2.2-1.4l-3,9.9c-.5,1.6-.9,3.2-1.3,4.8-.2.6-.5,1.2-.7,1.9l-.7-.7V96.7c1.4-.3.4-1.5.7-2.2.2-.3.7-.6.7-.9a24.32,24.32,0,0,0,0-2.7c1.4-.3.4-1.5.7-2.2,1.1-.1.6-.9.7-1.4C20.7,87,19.7,85.8,20,85.1Z" transform="translate(-7.7 -4.19)"/><path d="M141.9,250.4H117.4v-.7h17.9c.6,0,1.5.5,1.6-.7h9.3c-.4,1.4-1.6.4-2.3.7S142.2,249,141.9,250.4Z" transform="translate(-7.7 -4.19)"/><path d="M247.3,160.9c-1.4-.2-.8-1.4-.7-2,.6-2.1,1-4.3,1.6-6.4.5-1.8.7-3.7,1.2-5.5.3-.9.9-.4,1.4-.5-.7,2.6-.8,5.4-1.5,8-.6,2.1-.4,4.3-1.5,6.2C247.8,160.8,247.5,160.8,247.3,160.9Z" transform="translate(-7.7 -4.19)"/><path d="M137.6,248.9H125.4c-.2,0-.4-.3-.7-.5a1.42,1.42,0,0,1,.6-.2c5.4-.3,10.8-.5,16.2-.7h1.8v.7h-4.9C138.2,248.3,137.9,248.7,137.6,248.9Z" transform="translate(-7.7 -4.19)"/><path d="M12.8,118.3l.7-.7h.7c.5,3.9-1,7.7-.7,11.5h-.7Z" transform="translate(-7.7 -4.19)"/><path d="M17.1,86.6c.3,2.6-1.3,4.8-1.8,7.2-.1.3-.7.5-1.1.8s-.7.5-1.1.7c-.1-.4-.4-.9-.3-1.2.4-.8.3-2,1.4-2.4a1.72,1.72,0,0,0,1.4-2A3.39,3.39,0,0,1,17.1,86.6Z" transform="translate(-7.7 -4.19)"/><path d="M131.1,250.4h10.1c-.1.2-.1.6-.2.6-3.3.4-6.5,1.2-9.9.9Z" transform="translate(-7.7 -4.19)"/><path d="M7.7,127v-7.2a1.42,1.42,0,0,1,.2-.6c.2.2.5.4.5.6v15.1a1.42,1.42,0,0,1-.2.6c-.2-.2-.5-.4-.5-.6Z" transform="translate(-7.7 -4.19)"/><path d="M186.7,232.3c-.4,1.4-2.1.3-2.8,1.6a3.2,3.2,0,0,1-3,1.3c0-.2-.1-.5,0-.7a7.68,7.68,0,0,1,5-3.6C186.1,231.4,185.6,232.3,186.7,232.3Z" transform="translate(-7.7 -4.19)"/><path d="M33,201.3c-.2,0-.6.1-.7,0-1.6-1.3-3-2.7-2.9-5A7.68,7.68,0,0,1,33,201.3Z" transform="translate(-7.7 -4.19)"/><path d="M131.1,240.3a4.05,4.05,0,0,1,1.1,0c.8.2,1.8-.5,2.4.5-.7.2-1.4.5-2.2.7a4.71,4.71,0,0,1-2,.2,22.94,22.94,0,0,1-2.8-.9c.8-1,1.9-.2,2.8-.5C130.6,240.2,130.9,240.3,131.1,240.3Z" transform="translate(-7.7 -4.19)"/><path d="M97.1,246.8h-.7c-1.7-.6-3.3-1.2-5-1.8v-.3c1.8-.3,3.3.6,4.9,1,.2,0,.3.3.5.4l.9.3A3.11,3.11,0,0,0,97.1,246.8Z" transform="translate(-7.7 -4.19)"/><path d="M43.8,213.7c-.1.2-.2.5-.4.5a.85.85,0,0,1-.7,0,29.49,29.49,0,0,1-2.5-2.5.85.85,0,0,1,0-.7.66.66,0,0,1,.5-.4A5.87,5.87,0,0,1,43.8,213.7Z" transform="translate(-7.7 -4.19)"/><path d="M117.4,249.7v.7c-2.1.1-3.9-1.2-6-.7-.1,0-.3-.3-.4-.4l.2-.2c2,0,4,0,5.9.1C117.3,249.1,117.3,249.5,117.4,249.7Z" transform="translate(-7.7 -4.19)"/><path d="M35.9,204.6c-.3.1-.7.4-.8.3-1-.7-2.3-1.3-2-2.9a2.12,2.12,0,0,1,.3-.7l2.5,2.8Z" transform="translate(-7.7 -4.19)"/><path d="M14.2,108.2c.1-.4.1-.9.2-1.3a14.24,14.24,0,0,1,.5-1.6c.3-.7-.7-1.8.7-2.2h.7a16.27,16.27,0,0,0-.9,4.8c0,.1-.4.2-.6.2S14.5,108.2,14.2,108.2Z" transform="translate(-7.7 -4.19)"/><path d="M14.2,117.6h-.7v-4.9c0-.3.4-.6.7-.9h.7c-.2,1-.6,1.9-.7,2.9A28,28,0,0,0,14.2,117.6Z" transform="translate(-7.7 -4.19)"/><path d="M143.4,248.2v-.7c.2-.2.4-.7.6-.7a35.3,35.3,0,0,1,4.6,0c.2,0,.4.4.6.7h-3.5c-.3,0-.6.4-.9.7Z" transform="translate(-7.7 -4.19)"/><path d="M51,220.8c1.9.4,2.5,1,2.9,2.9A3.12,3.12,0,0,1,51,220.8Z" transform="translate(-7.7 -4.19)"/><path d="M97.9,241.7a6.11,6.11,0,0,1,1.4.7,5,5,0,0,1,.7.8,5.3,5.3,0,0,1-1,.6c-1,0-2.3.4-1.9-1.4A1.85,1.85,0,0,0,97.9,241.7Z" transform="translate(-7.7 -4.19)"/><path d="M148.4,70.4v1.4a.45.45,0,0,1-.4.3l-.2-.2a1.77,1.77,0,0,1-.4-2.7,3,3,0,0,1,.7-.5,1.42,1.42,0,0,1,.2.6C148.5,69.6,148.4,70,148.4,70.4Z" transform="translate(-7.7 -4.19)"/><path d="M103.2,243.2a7.72,7.72,0,0,0,1,.1c.1,0,.2.2.2.2s-.2.4-.3.3a3.67,3.67,0,0,0-2.5.7c-.1.1-.5-.3-.8-.4.2-.3.4-.8.7-.9S102.4,243.2,103.2,243.2Z" transform="translate(-7.7 -4.19)"/><path d="M115.1,246.1c-1-.3-2,.4-2.6-.6a9.74,9.74,0,0,1,2.4-.2c.8.1,1.8-.5,2.4.4C116.5,245.9,115.7,246,115.1,246.1Z" transform="translate(-7.7 -4.19)"/><path d="M46.9,218.2l-1.6-1.6c-.1-.1,0-.5.2-.6a1.42,1.42,0,0,1,.6-.2c.8.3,1.5.8,1.3,1.8C47.4,217.7,47.2,217.8,46.9,218.2Z" transform="translate(-7.7 -4.19)"/><path d="M154.2,248.2v.3c-1.2.4-2.4.7-3.6,1.1v-1.4h3.6Z" transform="translate(-7.7 -4.19)"/><path d="M167.2,243.9v.7c-.5.1-1.4-.4-1.4.7h-2.2v-.7l.7-.7h2.9Z" transform="translate(-7.7 -4.19)"/><path d="M163.6,244.6v.7h-2.2c-.3-1.4-1.5-.4-2.2-.7.3-.2.5-.6.9-.7a13.33,13.33,0,0,1,2,0C162.2,245,163,244.5,163.6,244.6Z" transform="translate(-7.7 -4.19)"/><path d="M16.4,103.2h-.7V99.6h.7l.7.7c-.1.4-.1.9-.2,1.3S16.6,102.7,16.4,103.2Z" transform="translate(-7.7 -4.19)"/><path d="M39.8,208.8c-.5.2-.9.5-1.1.4a4.44,4.44,0,0,1-1.1-.8,6.11,6.11,0,0,1-.3-1.3c.4.1,1,0,1.3.3C39.1,207.7,39.3,208.2,39.8,208.8Z" transform="translate(-7.7 -4.19)"/><path d="M12.8,129.2h.7c-.3,1.4.6,2.9-.5,4.2C12.9,132,12.9,130.6,12.8,129.2Z" transform="translate(-7.7 -4.19)"/><path d="M156.4,245.3c.3-.2.5-.6.9-.7a13.33,13.33,0,0,1,2,0l.7.7c-.1,1.1-.9.6-1.4.7C158.2,244.7,157.1,245.6,156.4,245.3Z" transform="translate(-7.7 -4.19)"/><path d="M246.6,163.8c-1.2-.1-.7-1.1-.7-1.6.1-.9.9-.4,1.4-.5C247,162.3,248,163.5,246.6,163.8Z" transform="translate(-7.7 -4.19)"/><path d="M166.5,243.9h-2.2v-.7c.1-1.2,1.1-.7,1.6-.7C166.8,242.6,166.4,243.4,166.5,243.9Z" transform="translate(-7.7 -4.19)"/><path d="M27,193.9a18.92,18.92,0,0,1-1.2-2.1,1,1,0,0,1,.6-.5c1.1,0,.7.9.8,1.5C27.2,192.9,27.1,193.2,27,193.9Z" transform="translate(-7.7 -4.19)"/><path d="M170.5,233.7a4.79,4.79,0,0,1-1.1.8,3,3,0,0,1-1.3-.2,14.2,14.2,0,0,1,1.3-1.2C169.5,233,169.9,233.4,170.5,233.7Z" transform="translate(-7.7 -4.19)"/><path d="M108.8,245.3c.4,0-.1,0-.5-.1a.22.22,0,0,1-.2-.2v-.3c1.1.1,2.3.1,3.4.2l.1.2c0,.1-.2.2-.2.2Z" transform="translate(-7.7 -4.19)"/><path d="M104.4,243.9a24.32,24.32,0,0,1,2.7,0c.3,0,.6.4.9.7a24.32,24.32,0,0,1-2.7,0C105,244.5,104.7,244.1,104.4,243.9Z" transform="translate(-7.7 -4.19)"/><path d="M150.6,248.2v.7H147c.3-1.4,1.5-.4,2.2-.7Z" transform="translate(-7.7 -4.19)"/><path d="M152.8,246.1c.3-1.4,1.5-.4,2.2-.7v.7c-.5.1-1.4-.4-1.4.7v.7h-.7v-.7A2,2,0,0,1,152.8,246.1Z" transform="translate(-7.7 -4.19)"/><ellipse cx="6.9" cy="105.81" rx="0.5" ry="2.6"/><path d="M152.8,247.5h1.4v.7h-2.9C151.4,247.1,152.2,247.6,152.8,247.5Z" transform="translate(-7.7 -4.19)"/><path d="M12.8,97.6v.7a1,1,0,0,1-.4.5c-.1-.1-.3-.2-.3-.3V96.4c0-.1.3-.3.4-.4.1.2.3.4.3.6Z" transform="translate(-7.7 -4.19)"/><path d="M11.3,103.2v1.1c0,.1-.3.2-.5.3V102c.2.1.4.1.5.2A3.33,3.33,0,0,1,11.3,103.2Z" transform="translate(-7.7 -4.19)"/><path d="M36.5,207.4c-.2-.5-.6-.9-.5-1.1s.6-.4.9-.6a2.46,2.46,0,0,1,.4,1.1C37.3,206.9,36.9,207,36.5,207.4Z" transform="translate(-7.7 -4.19)"/><path d="M201.8,213.2c.4.5.7.7.7,1,.1.8-.5.9-1.1.8-.2,0-.4-.5-.3-.6A5.23,5.23,0,0,1,201.8,213.2Z" transform="translate(-7.7 -4.19)"/><path d="M164.3,243.2v.7l-.7.7c-.1-1.1-.9-.6-1.4-.7C162.5,242.5,163.6,243.4,164.3,243.2Z" transform="translate(-7.7 -4.19)"/><path d="M152.8,246.1v.7c-.9-.3-2,.6-2.8-.5A26.35,26.35,0,0,1,152.8,246.1Z" transform="translate(-7.7 -4.19)"/><path d="M102.8,248.2h-.7l-.6-.3c.2-.1.4-.3.6-.3a3.3,3.3,0,0,1,1.4,0,3.18,3.18,0,0,1,.9.3c-.3.1-.6.3-.9.4S103,248.2,102.8,248.2Z" transform="translate(-7.7 -4.19)"/><path d="M94.7,241.9c-.4-.2-.7-.4-1.1-.6a5.27,5.27,0,0,1,1.2-.3,1.8,1.8,0,0,1,.9.4A9.25,9.25,0,0,0,94.7,241.9Z" transform="translate(-7.7 -4.19)"/><path d="M163.8,235.1c.5.2.8.3,1.1.4a1.78,1.78,0,0,1-1,.4,2.92,2.92,0,0,1-.9-.2A5.55,5.55,0,0,0,163.8,235.1Z" transform="translate(-7.7 -4.19)"/><path d="M12.2,99.9c-.2.4-.4.7-.6,1.1a5.27,5.27,0,0,1-.3-1.2,1.8,1.8,0,0,1,.4-.9A9.29,9.29,0,0,1,12.2,99.9Z" transform="translate(-7.7 -4.19)"/><path d="M97.9,241.7l-.7.7c-.5-.1-1.4.4-1.4-.7Z" transform="translate(-7.7 -4.19)"/><path d="M211.9,205.6c.2,1.2-.3,1.7-1.4,1.4A9.27,9.27,0,0,0,211.9,205.6Z" transform="translate(-7.7 -4.19)"/><path d="M99.6,246.6c.5.2.8.3,1.1.4a1.78,1.78,0,0,1-1,.4,2.92,2.92,0,0,1-.9-.2C99.1,247,99.3,246.8,99.6,246.6Z" transform="translate(-7.7 -4.19)"/><path d="M199.7,215.7c.1-1.1.9-.6,1.4-.7C201.1,216.1,200.2,215.6,199.7,215.7Z" transform="translate(-7.7 -4.19)"/><path d="M28.7,195.5c-1.1-.1-.6-.9-.7-1.4C29,194.2,28.6,195,28.7,195.5Z" transform="translate(-7.7 -4.19)"/><path d="M53.9,223.7c.5.1,1.4-.4,1.4.7C54.8,224.3,54,224.8,53.9,223.7Z" transform="translate(-7.7 -4.19)"/><path d="M90.8,244.7a4.35,4.35,0,0,1-.7-.6,3.18,3.18,0,0,1,.9-.3c.2,0,.3.2.5.4C91.2,244.4,91,244.6,90.8,244.7Z" transform="translate(-7.7 -4.19)"/><path d="M61.1,228.2c-.2.3-.3.6-.4.5a2.92,2.92,0,0,1-.9-.2,2.19,2.19,0,0,1,.3-.5A4.4,4.4,0,0,1,61.1,228.2Z" transform="translate(-7.7 -4.19)"/><path d="M67.6,233.1c-.5-.1-1.4.4-1.4-.7C66.7,232.4,67.6,232,67.6,233.1Z" transform="translate(-7.7 -4.19)"/><path d="M71.5,234.9c-.6.1-1,.3-1.2.2s-.3-.4-.5-.7h.7A3,3,0,0,0,71.5,234.9Z" transform="translate(-7.7 -4.19)"/><path d="M166.1,234.4a4.13,4.13,0,0,1,.9.4,2.65,2.65,0,0,1-.6.5,1.42,1.42,0,0,1-.6-.2A2.6,2.6,0,0,0,166.1,234.4Z" transform="translate(-7.7 -4.19)"/><path d="M85,242.6a4.35,4.35,0,0,1-.7-.6,3.18,3.18,0,0,1,.9-.3c.2,0,.3.2.5.4A4.23,4.23,0,0,1,85,242.6Z" transform="translate(-7.7 -4.19)"/><path d="M87.4,242.9c-.6.1-1,.3-1.2.2s-.3-.4-.5-.7h.7Z" transform="translate(-7.7 -4.19)"/><path d="M88.2,243a4.13,4.13,0,0,1,.9.4,2.65,2.65,0,0,1-.6.5,1.42,1.42,0,0,1-.6-.2A1.74,1.74,0,0,0,88.2,243Z" transform="translate(-7.7 -4.19)"/><path d="M21.7,185a8.17,8.17,0,0,1-.1-1.4,2,2,0,0,1,.5-.1,2.92,2.92,0,0,1,.2.9A3.08,3.08,0,0,0,21.7,185Z" transform="translate(-7.7 -4.19)"/><path d="M154.9,246.1v-.7h1.4C156.3,246.4,155.5,245.9,154.9,246.1Z" transform="translate(-7.7 -4.19)"/><path d="M210.5,207.4c-.1.1-.3.2-.4.3,0-.2-.2-.4-.1-.4a1.69,1.69,0,0,1,.5-.2Z" transform="translate(-7.7 -4.19)"/><path d="M208.8,208.6l.2.2a1.38,1.38,0,0,1-.3.4l-.3-.3A1.38,1.38,0,0,1,208.8,208.6Z" transform="translate(-7.7 -4.19)"/><path d="M207.6,210l.7-.7Z" transform="translate(-7.7 -4.19)"/><path d="M207.6,210.3c-.1.1-.3.2-.4.3,0-.2-.2-.4-.1-.4a1.69,1.69,0,0,1,.5-.2Z" transform="translate(-7.7 -4.19)"/><path d="M28.7,195.5l.7.7A2.34,2.34,0,0,1,28.7,195.5Z" transform="translate(-7.7 -4.19)"/><path d="M199.7,216.1c-.1.1-.3.2-.4.3,0-.2-.2-.4-.1-.4a1.69,1.69,0,0,1,.5-.2Z" transform="translate(-7.7 -4.19)"/><path d="M65,226.7c.2.1.3.2.5.3l-.2.2c-.2,0-.3-.1-.5-.2C64.8,226.8,64.9,226.8,65,226.7Z" transform="translate(-7.7 -4.19)"/><path d="M58.7,226.7l.3.3c-.2.1-.3.2-.5.2a.22.22,0,0,1-.2-.2C58.4,226.8,58.6,226.8,58.7,226.7Z" transform="translate(-7.7 -4.19)"/><path d="M23.5,186.4c-.1.2-.2.3-.3.5l-.2-.2c0-.2.1-.3.2-.5C23.3,186.2,23.4,186.3,23.5,186.4Z" transform="translate(-7.7 -4.19)"/><path d="M63.7,230.9c-.1-.1-.2-.3-.3-.4.2,0,.4-.2.4-.1a1.69,1.69,0,0,1,.2.5Z" transform="translate(-7.7 -4.19)"/><path d="M22.8,185.1l-.2.2a1.38,1.38,0,0,1-.4-.3l.3-.3A1.38,1.38,0,0,0,22.8,185.1Z" transform="translate(-7.7 -4.19)"/><path d="M57.4,226.1c-.1.2-.2.3-.3.5l-.2-.2c0-.2.1-.3.2-.5C57.2,225.9,57.3,226,57.4,226.1Z" transform="translate(-7.7 -4.19)"/><path d="M64.7,231.3l-.2.2a1.38,1.38,0,0,1-.4-.3l.3-.3C64.5,231,64.6,231.2,64.7,231.3Z" transform="translate(-7.7 -4.19)"/><path d="M8.4,137.6l-.3.3c-.1-.2-.2-.3-.2-.5a.22.22,0,0,1,.2-.2C8.2,137.2,8.3,137.4,8.4,137.6Z" transform="translate(-7.7 -4.19)"/><path d="M25.7,190.2l-.2.2a1.38,1.38,0,0,1-.4-.3l.3-.3A1.38,1.38,0,0,1,25.7,190.2Z" transform="translate(-7.7 -4.19)"/><path d="M65.9,232.3c-.1-.1-.2-.3-.3-.4.2,0,.4-.2.4-.1a1.69,1.69,0,0,1,.2.5Z" transform="translate(-7.7 -4.19)"/><path d="M56,224.8l-.2.2a1.38,1.38,0,0,1-.4-.3l.3-.3C55.8,224.5,55.9,224.7,56,224.8Z" transform="translate(-7.7 -4.19)"/><path d="M61.6,224.3c-.2-.1-.3-.2-.5-.3l.2-.2c.2,0,.3.1.5.2C61.8,224.1,61.7,224.2,61.6,224.3Z" transform="translate(-7.7 -4.19)"/><path d="M59.8,223.4c.1-.2.2-.3.3-.5l.2.2c0,.2-.1.3-.2.5C60,223.6,59.9,223.5,59.8,223.4Z" transform="translate(-7.7 -4.19)"/><path d="M67.6,228.4l-.2.2a1.38,1.38,0,0,1-.4-.3l.3-.3C67.3,228.2,67.5,228.3,67.6,228.4Z" transform="translate(-7.7 -4.19)"/><path d="M209.8,221.5l-.7.7Z" transform="translate(-7.7 -4.19)"/><path d="M210.5,220.8l-.7.7Z" transform="translate(-7.7 -4.19)"/><path d="M66.6,228c-.1-.1-.2-.3-.3-.4.2,0,.4-.2.4-.1a1.69,1.69,0,0,1,.2.5Z" transform="translate(-7.7 -4.19)"/><path d="M50.7,220.8c-.1-.1-.2-.3-.3-.4.2,0,.4-.2.4-.1a1.69,1.69,0,0,1,.2.5Z" transform="translate(-7.7 -4.19)"/><path d="M49.5,219.8l-.2.2a1.38,1.38,0,0,1-.4-.3l.3-.3A1.38,1.38,0,0,1,49.5,219.8Z" transform="translate(-7.7 -4.19)"/><path d="M48.1,218.6l.7.7Z" transform="translate(-7.7 -4.19)"/><path d="M48.1,218.6l-.7-.7A4.62,4.62,0,0,1,48.1,218.6Z" transform="translate(-7.7 -4.19)"/><path d="M68.3,233.5l-.2.2a1.38,1.38,0,0,1-.4-.3l.3-.3A1.38,1.38,0,0,1,68.3,233.5Z" transform="translate(-7.7 -4.19)"/><path d="M27.9,194.1l-.7-.7A4.62,4.62,0,0,1,27.9,194.1Z" transform="translate(-7.7 -4.19)"/><path d="M105.6,248.3l.3.3c-.2.1-.3.2-.5.2a.22.22,0,0,1-.2-.2C105.3,248.5,105.5,248.4,105.6,248.3Z" transform="translate(-7.7 -4.19)"/><path d="M24.2,188.1l-.3.3c-.1-.2-.2-.3-.2-.5a.22.22,0,0,1,.2-.2C24.1,187.8,24.1,187.9,24.2,188.1Z" transform="translate(-7.7 -4.19)"/><path d="M69.5,234.5c-.1-.1-.2-.3-.3-.4.2,0,.4-.2.4-.1a1.69,1.69,0,0,1,.2.5Z" transform="translate(-7.7 -4.19)"/><path d="M62.5,229.9l-.3.3c-.1-.2-.2-.3-.2-.5a.22.22,0,0,1,.2-.2C62.3,229.6,62.4,229.8,62.5,229.9Z" transform="translate(-7.7 -4.19)"/><path d="M24.7,189.8c-.1-.1-.2-.3-.3-.4.2,0,.4-.2.4-.1a1.69,1.69,0,0,1,.2.5Z" transform="translate(-7.7 -4.19)"/><path d="M247.3,108.2a3.93,3.93,0,0,0,.6.2c-.2,3.6,1.2,7,.9,10.6-.2.3-.5.6-.7.9s-.5.4-.7.6c-.2-.3-.7-.6-.7-.9-.1-1.4,0-2.8,0-4.2h.3c.1-1.6.2-3.2.2-4.8a3.09,3.09,0,0,0-1.3-.2V109l.7-.7A1.7,1.7,0,0,1,247.3,108.2Z" transform="translate(-7.7 -4.19)"/><path d="M245.9,110.4c.4.1,1.3.2,1.3.2,0,1.6-.1,3.2-.2,4.8h-.3c-.2-.3-.7-.6-.7-.9A27.73,27.73,0,0,1,245.9,110.4Z" transform="translate(-7.7 -4.19)"/><path d="M147.6,7.9h-2.4c-.1,0-.2-.3-.3-.5,0,0,.1-.2.2-.2a10.82,10.82,0,0,1,1.8,0c.7.1,1.6-.5,2.1.4A7,7,0,0,1,147.6,7.9Z" transform="translate(-7.7 -4.19)"/><path d="M247.3,108.2h-.7c.3-1.4-.6-2.9.5-4.2C247.1,105.4,247.2,106.8,247.3,108.2Z" transform="translate(-7.7 -4.19)"/><path d="M17.8,90.9a24.32,24.32,0,0,1,0,2.7c0,.3-.4.6-.7.9a24.32,24.32,0,0,1,0-2.7C17.2,91.5,17.6,91.2,17.8,90.9Z" transform="translate(-7.7 -4.19)"/><path d="M245.9,109v.7c-.2-.3-.7-.6-.7-.9a24.32,24.32,0,0,1,0-2.7c.2.3.6.5.7.9Z" transform="translate(-7.7 -4.19)"/><path d="M245.1,104.3v1.4c0,.1-.2.2-.3.4a2.18,2.18,0,0,0-.4-.5v-2.1a3.18,3.18,0,0,1,.3-.9c.1.4.3.7.4,1.1C245.2,103.8,245.1,104.1,245.1,104.3Z" transform="translate(-7.7 -4.19)"/><path d="M170.8,14.4v-.7a16.44,16.44,0,0,0,2.2,1.4C172.3,14.9,171.2,15.8,170.8,14.4Z" transform="translate(-7.7 -4.19)"/><path d="M16.4,99.6h-.7a13.33,13.33,0,0,1,0-2,2.76,2.76,0,0,1,.7-.9Z" transform="translate(-7.7 -4.19)"/><path d="M245.1,97.8c0-.2-.1-.5,0-.7s.3-.2.5-.3v2.6a2.19,2.19,0,0,1-.5-.3Z" transform="translate(-7.7 -4.19)"/><path d="M243.7,100.2v-1c0-.1.2-.2.3-.3.1.2.3.3.4.5a1.7,1.7,0,0,1,0,1c-.1.4-.2.8-.3,1.3-.1-.4-.3-.7-.4-1.1Z" transform="translate(-7.7 -4.19)"/><path d="M245.9,101.6v-.7l.3-.6c.1.2.3.4.3.6a3.3,3.3,0,0,1,0,1.4,3.18,3.18,0,0,1-.3.9c-.1-.3-.3-.6-.4-.9S245.9,101.8,245.9,101.6Z" transform="translate(-7.7 -4.19)"/><path d="M227.8,199.9a1.84,1.84,0,0,1,1.4-2.2A1.71,1.71,0,0,1,227.8,199.9Z" transform="translate(-7.7 -4.19)"/><path d="M242.2,94.5v-1c0-.1.2-.2.3-.3.1.2.3.3.4.5a1.7,1.7,0,0,1,0,1c-.1.4-.2.8-.3,1.3-.1-.4-.3-.7-.4-1.1Z" transform="translate(-7.7 -4.19)"/><path d="M243.6,92.6a3.6,3.6,0,0,1,.5-.9,5,5,0,0,1,.3,1.3,3.18,3.18,0,0,1-.3.9A11.22,11.22,0,0,1,243.6,92.6Z" transform="translate(-7.7 -4.19)"/><path d="M17.1,94.5c-.3.7.7,1.8-.7,2.2C16.7,96,15.7,94.9,17.1,94.5Z" transform="translate(-7.7 -4.19)"/><path d="M242.8,97.7a6.89,6.89,0,0,0,.4-1c.1.5.3.9.4,1.4a2.12,2.12,0,0,1-.3.7A9.74,9.74,0,0,0,242.8,97.7Z" transform="translate(-7.7 -4.19)"/><path d="M20,85.1c-.3.7.7,1.8-.7,2.2C19.6,86.6,18.6,85.5,20,85.1Z" transform="translate(-7.7 -4.19)"/><path d="M240.1,86.6c1.4.3.4,1.5.7,2.2C239.4,88.4,240.4,87.3,240.1,86.6Z" transform="translate(-7.7 -4.19)"/><path d="M18.6,88.7c-.3.7.7,1.8-.7,2.2C18.1,90.2,17.2,89.1,18.6,88.7Z" transform="translate(-7.7 -4.19)"/><path d="M240.8,88.7c1.4.3.4,1.5.7,2.2C240.1,90.6,241.1,89.5,240.8,88.7Z" transform="translate(-7.7 -4.19)"/><path d="M241.5,90.9c1.4.3.4,1.5.7,2.2C240.9,92.7,241.8,91.6,241.5,90.9Z" transform="translate(-7.7 -4.19)"/><path d="M174.7,15.6c-.6.1-1,.3-1.2.2s-.3-.4-.5-.7h.7A8.92,8.92,0,0,0,174.7,15.6Z" transform="translate(-7.7 -4.19)"/><path d="M239.1,82.9a5.39,5.39,0,0,1,.3,1,.85.85,0,0,1-.3.5,3.18,3.18,0,0,1-.3-.9C238.6,83.4,238.9,83.2,239.1,82.9Z" transform="translate(-7.7 -4.19)"/><path d="M18.7,83.6a4.35,4.35,0,0,1-.6.7,3.18,3.18,0,0,1-.3-.9c0-.2.2-.3.4-.5A4.23,4.23,0,0,0,18.7,83.6Z" transform="translate(-7.7 -4.19)"/><path d="M19,81.2c.1.6.3,1,.2,1.2s-.4.3-.7.5v-.7A4.34,4.34,0,0,0,19,81.2Z" transform="translate(-7.7 -4.19)"/><path d="M238.7,81.5a5.92,5.92,0,0,1-.4.6c-.1-.3-.3-.7-.4-1.1,0-.1.2-.2.3-.3C238.4,81.1,238.6,81.3,238.7,81.5Z" transform="translate(-7.7 -4.19)"/><path d="M237.4,81.1a8.17,8.17,0,0,1-.1-1.4,2,2,0,0,1,.5-.1,2.92,2.92,0,0,1,.2.9A3.08,3.08,0,0,0,237.4,81.1Z" transform="translate(-7.7 -4.19)"/><path d="M208.6,37.2c-.6.1-1,.3-1.2.2s-.3-.4-.5-.7h.7A3,3,0,0,0,208.6,37.2Z" transform="translate(-7.7 -4.19)"/><path d="M209.8,39c1.1.1.6.9.7,1.4C209.4,40.3,209.9,39.5,209.8,39Z" transform="translate(-7.7 -4.19)"/><path d="M212.2,40.8c-.6.1-1,.3-1.2.2s-.3-.4-.5-.7h.7A3,3,0,0,0,212.2,40.8Z" transform="translate(-7.7 -4.19)"/><path d="M213.4,42.5a5.94,5.94,0,0,0-.4.8c-.1-.2-.4-.4-.3-.5a3.18,3.18,0,0,1,.3-.9A1.54,1.54,0,0,1,213.4,42.5Z" transform="translate(-7.7 -4.19)"/><path d="M226.4,59.2c-1.1-.1-.6-.9-.7-1.4C226.7,57.8,226.3,58.6,226.4,59.2Z" transform="translate(-7.7 -4.19)"/><path d="M229.3,63.5c1.1.1.6.9.7,1.4C228.9,64.9,229.4,64,229.3,63.5Z" transform="translate(-7.7 -4.19)"/><path d="M232.9,69.3a5.92,5.92,0,0,1-.4.6c-.1-.3-.3-.7-.4-1.1,0-.1.2-.2.3-.3A9.22,9.22,0,0,1,232.9,69.3Z" transform="translate(-7.7 -4.19)"/><path d="M235.7,76.4a5.92,5.92,0,0,1,.4-.6,3.18,3.18,0,0,1,.3.9.85.85,0,0,1-.3.5A5.94,5.94,0,0,0,235.7,76.4Z" transform="translate(-7.7 -4.19)"/><path d="M224.9,203.5c0,.2.1.5,0,.7a2.65,2.65,0,0,1-.5.6,1.42,1.42,0,0,1-.2-.6v-.7Z" transform="translate(-7.7 -4.19)"/><path d="M20.1,80a5.94,5.94,0,0,0-.4.8c-.1-.2-.4-.4-.3-.5a3.18,3.18,0,0,1,.3-.9A5.92,5.92,0,0,1,20.1,80Z" transform="translate(-7.7 -4.19)"/><path d="M227.1,200.6c0,.2.1.5,0,.7a2.65,2.65,0,0,1-.5.6,1.42,1.42,0,0,1-.2-.6v-.7Z" transform="translate(-7.7 -4.19)"/><path d="M222,207.1c0,.2.1.5,0,.7a2.65,2.65,0,0,1-.5.6,1.42,1.42,0,0,1-.2-.6v-.7Z" transform="translate(-7.7 -4.19)"/><path d="M19.3,87.3c-.1.5.4,1.4-.7,1.4C18.7,88.2,18.2,87.4,19.3,87.3Z" transform="translate(-7.7 -4.19)"/><path d="M239.6,86.9a8.17,8.17,0,0,1-.1-1.4,2,2,0,0,1,.5-.1,2.92,2.92,0,0,1,.2.9A3.08,3.08,0,0,0,239.6,86.9Z" transform="translate(-7.7 -4.19)"/><path d="M17.6,84.8c.1.6.3,1,.2,1.2s-.4.3-.7.5v-.7A8.12,8.12,0,0,0,17.6,84.8Z" transform="translate(-7.7 -4.19)"/><path d="M175.2,16.3c.1-.2.2-.3.3-.5l.2.2c0,.2-.1.3-.2.5C175.4,16.5,175.3,16.4,175.2,16.3Z" transform="translate(-7.7 -4.19)"/><path d="M177,17.2c-.2-.1-.3-.2-.5-.3l.2-.2c.2,0,.3.1.5.2C177.2,17,177.1,17.1,177,17.2Z" transform="translate(-7.7 -4.19)"/><path d="M186,21.3c-.2.1-.3.2-.5.2a.22.22,0,0,1-.2-.2c.2-.1.3-.2.5-.2C185.8,21,185.9,21.2,186,21.3Z" transform="translate(-7.7 -4.19)"/><path d="M186.9,21.7c.2.1.3.2.5.3l-.2.2c-.2,0-.3-.1-.5-.2C186.8,21.9,186.8,21.8,186.9,21.7Z" transform="translate(-7.7 -4.19)"/><path d="M189.2,23.1c.1.2.2.3.2.5a.22.22,0,0,1-.2.2c-.1-.2-.2-.3-.2-.5Z" transform="translate(-7.7 -4.19)"/><path d="M190.7,23.8c.1.2.2.3.2.5a.22.22,0,0,1-.2.2c-.1-.2-.2-.3-.2-.5C190.4,24,190.6,23.9,190.7,23.8Z" transform="translate(-7.7 -4.19)"/><path d="M195.4,27.7l.3-.3c.1.2.2.3.2.5a.22.22,0,0,1-.2.2C195.6,28,195.5,27.8,195.4,27.7Z" transform="translate(-7.7 -4.19)"/><path d="M196.9,28.6c.1-.2.2-.3.3-.5l.2.2c0,.2-.1.3-.2.5C197.1,28.8,197,28.7,196.9,28.6Z" transform="translate(-7.7 -4.19)"/><path d="M198.3,30c.1-.2.2-.3.3-.5l.2.2c0,.2-.1.3-.2.5C198.5,30.2,198.4,30.1,198.3,30Z" transform="translate(-7.7 -4.19)"/><path d="M200.3,30.6c-.1.2-.2.3-.3.5l-.2-.2c0-.2.1-.3.2-.5C200.1,30.4,200.2,30.5,200.3,30.6Z" transform="translate(-7.7 -4.19)"/><path d="M201.6,32.4c-.2-.1-.3-.2-.5-.3l.2-.2c.2,0,.3.1.5.2C201.8,32.2,201.7,32.3,201.6,32.4Z" transform="translate(-7.7 -4.19)"/><path d="M203,33.1c-.2-.1-.3-.2-.5-.3l.2-.2c.2,0,.3.1.5.2C203.2,32.9,203.1,33,203,33.1Z" transform="translate(-7.7 -4.19)"/><path d="M206.6,36.8c-.1-.1-.2-.3-.3-.4.2,0,.4-.2.4-.1a1.69,1.69,0,0,1,.2.5Z" transform="translate(-7.7 -4.19)"/><path d="M209.5,39c-.1-.1-.2-.3-.3-.4.2,0,.4-.2.4-.1a1.69,1.69,0,0,1,.2.5Z" transform="translate(-7.7 -4.19)"/><path d="M225.3,57.7c-.1-.1-.2-.3-.3-.4.2,0,.4-.2.4-.1a1.69,1.69,0,0,1,.2.5Z" transform="translate(-7.7 -4.19)"/><path d="M228.9,63.5c-.1-.1-.2-.3-.3-.4.2,0,.4-.2.4-.1a1.69,1.69,0,0,1,.2.5Z" transform="translate(-7.7 -4.19)"/><path d="M230.6,65.4l-.2.2a1.38,1.38,0,0,1-.4-.3l.3-.3A1.38,1.38,0,0,1,230.6,65.4Z" transform="translate(-7.7 -4.19)"/><path d="M231.4,66.7c-.2.1-.3.2-.5.2a.22.22,0,0,1-.2-.2c.2-.1.3-.2.5-.2C231.2,66.5,231.3,66.7,231.4,66.7Z" transform="translate(-7.7 -4.19)"/><path d="M231.8,68.5c-.1-.1-.2-.3-.3-.4.2,0,.4-.2.4-.1a1.69,1.69,0,0,1,.2.5Z" transform="translate(-7.7 -4.19)"/><path d="M236.9,78.5c-.2-.1-.3-.2-.5-.3l.2-.2c.2,0,.3.1.5.2C237.1,78.4,237,78.4,236.9,78.5Z" transform="translate(-7.7 -4.19)"/><path d="M22.8,79.1l-.3.3c-.1-.2-.2-.3-.2-.5a.22.22,0,0,1,.2-.2C22.6,78.8,22.7,79,22.8,79.1Z" transform="translate(-7.7 -4.19)"/><path d="M222.8,206.4l-.7.7A2.34,2.34,0,0,1,222.8,206.4Z" transform="translate(-7.7 -4.19)"/><path d="M218.9,199.9l.2.2a1.38,1.38,0,0,1-.3.4l-.3-.3C218.6,200.2,218.7,200,218.9,199.9Z" transform="translate(-7.7 -4.19)"/><path d="M229.7,197l.2.2a1.38,1.38,0,0,1-.3.4l-.3-.3C229.4,197.3,229.5,197.2,229.7,197Z" transform="translate(-7.7 -4.19)"/><path d="M227.1,200.6l.7-.7Z" transform="translate(-7.7 -4.19)"/><path d="M236.1,186.2c.1.2.2.3.2.5a.22.22,0,0,1-.2.2c-.1-.2-.2-.3-.2-.5A.22.22,0,0,1,236.1,186.2Z" transform="translate(-7.7 -4.19)"/><path d="M237.2,185.1c-.2.1-.3.2-.5.2a.22.22,0,0,1-.2-.2c.2-.1.3-.2.5-.2C237,184.8,237.1,185,237.2,185.1Z" transform="translate(-7.7 -4.19)"/><path d="M225.4,202.8l.2.2a1.38,1.38,0,0,1-.3.4l-.3-.3A1.38,1.38,0,0,1,225.4,202.8Z" transform="translate(-7.7 -4.19)"/><path d="M234.8,189.7c-.2-.1-.3-.2-.5-.3l.2-.2c.2,0,.3.1.5.2C235,189.5,234.9,189.6,234.8,189.7Z" transform="translate(-7.7 -4.19)"/><path d="M235.1,187.9l.3-.3c.1.2.2.3.2.5a.22.22,0,0,1-.2.2C235.3,188.2,235.2,188,235.1,187.9Z" transform="translate(-7.7 -4.19)"/><path d="M227,59.6l-.2.2a1.38,1.38,0,0,1-.4-.3l.3-.3A1.38,1.38,0,0,1,227,59.6Z" transform="translate(-7.7 -4.19)"/><path d="M233.6,191.6c-.2.1-.3.2-.5.2a.22.22,0,0,1-.2-.2c.2-.1.3-.2.5-.2C233.4,191.3,233.5,191.5,233.6,191.6Z" transform="translate(-7.7 -4.19)"/><path d="M218.4,200.6l-.7.7A4.62,4.62,0,0,0,218.4,200.6Z" transform="translate(-7.7 -4.19)"/><path d="M232.9,193c-.2.1-.3.2-.5.2a.22.22,0,0,1-.2-.2c.2-.1.3-.2.5-.2Z" transform="translate(-7.7 -4.19)"/><path d="M222.8,205.6c.2.2.4.3.6.5a1.42,1.42,0,0,1-.6.2Z" transform="translate(-7.7 -4.19)"/><path d="M199.7,227.3c0-.8-.1-1.6,1.1-1.5.3,0,.7-.4,1.1-.7v1.4l-.7.7A8.08,8.08,0,0,1,199.7,227.3Z" transform="translate(-7.7 -4.19)"/><path d="M222.8,205.6v.7l-.7.7h-.7C221.1,205.9,221.6,205.4,222.8,205.6Z" transform="translate(-7.7 -4.19)"/><path d="M216.3,212.1c-.1.5.4,1.4-.7,1.4C215.7,213,215.2,212.2,216.3,212.1Z" transform="translate(-7.7 -4.19)"/><path d="M215.5,213.6l-.7.7A4.62,4.62,0,0,0,215.5,213.6Z" transform="translate(-7.7 -4.19)"/><path d="M214.8,214.3l-.7.7Z" transform="translate(-7.7 -4.19)"/><path d="M214.1,215l-.7.7A4.62,4.62,0,0,0,214.1,215Z" transform="translate(-7.7 -4.19)"/><path d="M198.2,229.5c-.2.2-.3.4-.5.6a1.42,1.42,0,0,1-.2-.6Z" transform="translate(-7.7 -4.19)"/><path d="M194.6,230.9l.7-.7A4.62,4.62,0,0,1,194.6,230.9Z" transform="translate(-7.7 -4.19)"/><path d="M213.4,215.7l-.7.7Z" transform="translate(-7.7 -4.19)"/><path d="M147,248.9h3.6v.7c-2.9,0-5.7,1.2-8.7.7.2-1.4,1.3-.5,2-.7s1.9.7,2.3-.7Z" transform="translate(-7.7 -4.19)"/><path d="M157.8,246.8l.7-.7c.5-.1,1.4.4,1.4-.7h3.6v.7l-.7.7c-.7-1-1.4-1-2.2,0Z" transform="translate(-7.7 -4.19)"/><path d="M157.8,246.8h2.9c-.3.2-.5.6-.9.7a13.33,13.33,0,0,1-2,0Z" transform="translate(-7.7 -4.19)"/><path d="M160.7,246.8c.7-1,1.4-1,2.2,0Z" transform="translate(-7.7 -4.19)"/><path d="M157.1,247.5v.7c-.7-.3-1.8.7-2.2-.7Z" transform="translate(-7.7 -4.19)"/><path d="M157.1,247.5h-2.2v-.7C155.6,247,156.8,246.1,157.1,247.5Z" transform="translate(-7.7 -4.19)"/><path d="M163.6,246.1v-.7h2.2C165.4,246.7,164.3,245.8,163.6,246.1Z" transform="translate(-7.7 -4.19)"/><path d="M205.4,223c.2,0,.5-.1.7,0a2.65,2.65,0,0,1,.6.5,1.42,1.42,0,0,1-.6.2h-.7Z" transform="translate(-7.7 -4.19)"/><path d="M189.6,234.5a5.92,5.92,0,0,1,.6.4c-.3.1-.7.3-1.1.4-.1,0-.2-.2-.3-.3A2.51,2.51,0,0,1,189.6,234.5Z" transform="translate(-7.7 -4.19)"/><path d="M165.8,245.3c.1-1.1.9-.6,1.4-.7C167.1,245.7,166.3,245.2,165.8,245.3Z" transform="translate(-7.7 -4.19)"/><path d="M201.1,227.3l.7-.7Z" transform="translate(-7.7 -4.19)"/><path d="M188.9,235.5c-.1.1-.3.2-.4.3,0-.2-.2-.4-.1-.4a1.69,1.69,0,0,1,.5-.2Z" transform="translate(-7.7 -4.19)"/><path d="M205.4,224c-.1.1-.3.2-.4.3,0-.2-.2-.4-.1-.4a1.69,1.69,0,0,1,.5-.2Z" transform="translate(-7.7 -4.19)"/><path d="M194.6,231.6l-.7.7A4.62,4.62,0,0,0,194.6,231.6Z" transform="translate(-7.7 -4.19)"/><path d="M193.9,232.7c-.1.1-.3.2-.4.3,0-.2-.2-.4-.1-.4a1.69,1.69,0,0,1,.5-.2Z" transform="translate(-7.7 -4.19)"/><circle cx="146.2" cy="242.91" r="0.5"/><path d="M192.1,233.1c.1.2.2.3.2.5a.22.22,0,0,1-.2.2c-.1-.2-.2-.3-.2-.5A.22.22,0,0,1,192.1,233.1Z" transform="translate(-7.7 -4.19)"/><path d="M199.7,228.3c-.1.1-.3.2-.4.3,0-.2-.2-.4-.1-.4a1.69,1.69,0,0,1,.5-.2Z" transform="translate(-7.7 -4.19)"/></svg>