<?xml version="1.0" encoding="utf-8"?>
<!-- Generator: Adobe Illustrator 22.1.0, SVG Export Plug-In . SVG Version: 6.00 Build 0)  -->
<svg version="1.1" id="Capa_1" xmlns="http://www.w3.org/2000/svg" xmlns:xlink="http://www.w3.org/1999/xlink" x="0px" y="0px"
	 viewBox="0 0 489 489" fill="#000000" xml:space="preserve">
<g>
	<g>
		<path d="M489,254.7c0-0.6,0-1.2,0-1.8c-1.2-23.5-20.6-42.2-44.4-42.2c-19.2,0-35.5,12.1-41.7,29.1l-32.2-3.2c0-0.3,0-0.6,0-0.9
			c0-40.9-20-77.1-50.8-99.4l27.7-46.7c3.9,1.1,8.1,1.8,12.4,1.8c24.5,0,44.4-19.9,44.4-44.4c0-0.1,0-0.1,0-0.2s0-0.1,0-0.2
			c0-24.4-19.7-44.1-44.2-44.1h-0.1H360c-24.5,0-44.4,19.9-44.4,44.4c0,12.2,5,23.3,13,31.4L300.9,125c-16-7.7-34-12-53-12
			c-31.2,0-59.6,11.6-81.2,30.7l-13-12.2c3.5-6.4,5.5-13.7,5.5-21.5c0-24.5-19.9-44.4-44.4-44.4h-0.1h-0.1
			c-24.4,0-44.2,19.7-44.2,44.1c0,0.1,0,0.1,0,0.2c0,0.1,0,0.1,0,0.2c0,24.5,19.9,44.4,44.4,44.4c8.7,0,16.8-2.5,23.7-6.8l12.9,12.2
			c-16.5,20.9-26.3,47.3-26.3,75.9c0,9.7,1.1,19.2,3.3,28.3l-46.6,15.6c-7.9-12.3-21.7-20.4-37.4-20.4C19.9,259.3,0,279.1,0,303.6
			v0.1v0.1C0,328.3,19.7,348,44.1,348c0.1,0,0.1,0,0.2,0c0.1,0,0.1,0,0.2,0c24.5,0,44.4-19.9,44.4-44.4c0-1,0-2-0.1-2.9l46.7-15.6
			c19,43.2,62.2,73.4,112.4,73.4c5.6,0,11.1-0.4,16.5-1.1l7.2,31.3c-14.2,7.4-24,22.3-24,39.4c0,24.5,19.9,44.4,44.4,44.4l0,0l0,0
			c3.1,0,6-0.3,8.9-0.9c20.3-4.1,35.5-22.1,35.5-43.5c0-24.1-19.3-43.8-43.3-44.4l-7.2-31.3c42-13.7,74.1-49.5,82.5-93.7l32.2,3.2
			c3.3,21.3,21.7,37.6,43.9,37.6c23.8,0,43.2-18.7,44.4-42.2c0-0.8,0.1-1.5,0.1-2.3l0,0l0,0C489,255,489,254.9,489,254.7z"/>
	</g>
</g>
</svg>
