<?xml version="1.0" encoding="utf-8"?>
<!-- Generator: Adobe Illustrator 23.0.5, SVG Export Plug-In . SVG Version: 6.00 Build 0)  -->
<svg version="1.1" id="图层_1" xmlns="http://www.w3.org/2000/svg" xmlns:xlink="http://www.w3.org/1999/xlink" x="0px" y="0px"
	 viewBox="0 0 256 256" style="enable-background:new 0 0 256 256;" xml:space="preserve">
<g>
	<g>
		<path d="M42.1,204.4H5v-8.7c7.2,0.6,10.5-4.3,10-14.8V75c0.5-10.4-2.8-15.3-10-14.8v-8.7h37v8.7c-7.2-0.6-10.5,4.3-10,14.8V181
			c-0.5,10.4,2.8,15.3,10,14.8V204.4z"/>
		<path d="M105.2,52.5v54.7h-4c-5.3-33-13-48.9-23.1-47.7c-12,0-17.9,22.9-17.9,68.6c0,45.1,6.9,68,20.7,68.6
			c13.5-0.6,20.8-17.9,21.9-52.1h4.8c-0.5,40.5-10.2,61.3-29.1,62.5c-23.1-2.3-35.5-28.6-37-79c2.4-48,14.3-74.4,35.9-79
			c5.8,0,12.5,4.3,19.9,13l4-9.5H105.2z"/>
		<path d="M108.2,128c2.4-48,14.3-74.4,35.9-79c21.2,5.2,33.1,31.6,35.5,79c-2.4,47.5-14.2,73.8-35.5,79
			C122.5,202.4,110.6,176,108.2,128z M127.3,128c0,45.7,5.6,68.6,16.7,68.6c10.9,0.6,16.3-22.3,16.3-68.6c0-46.3-5.4-69.2-16.3-68.6
			C132.9,59.4,127.3,82.3,127.3,128z"/>
		<path d="M176.9,60.3v-8.7h24.7l34.3,104.2h0.4V77.6c0.5-9.8-3.1-15.6-10.8-17.4v-8.7H251v8.7c-6.6,1.7-9.7,7.5-9.2,17.4v126.7
			h-9.6l-39-118.1h-0.4V181c-0.8,10.4,3.2,15.3,12,14.8v8.7h-27.5v-8.7c7.2,0.6,10.5-4.3,10-14.8V75
			C187.8,64.6,184.4,59.7,176.9,60.3z"/>
	</g>
	<g>
		<g>
			<g>
				<rect x="5" y="5" width="246" height="16"/>
				<rect x="0.5" y="9.5" transform="matrix(6.123234e-17 -1 1 6.123234e-17 -4.4838 30.5162)" width="25" height="16"/>
			</g>
			<rect x="230.5" y="9.5" transform="matrix(6.123234e-17 -1 1 6.123234e-17 225.5162 260.5162)" width="25" height="16"/>
		</g>
		<rect x="115.5" y="-6.5" transform="matrix(6.123234e-17 -1 1 6.123234e-17 110.5162 145.5162)" width="25" height="48"/>
	</g>
	<g>
		<g>
			<rect x="230.5" y="230.5" transform="matrix(6.123234e-17 -1 1 6.123234e-17 4.5162 481.5162)" width="25" height="16"/>
			<g>
				<rect x="5" y="235" width="246" height="16"/>
				<rect x="0.5" y="230.5" transform="matrix(6.123234e-17 -1 1 6.123234e-17 -225.4838 251.5162)" width="25" height="16"/>
			</g>
		</g>
		<rect x="115.5" y="214.5" transform="matrix(6.123234e-17 -1 1 6.123234e-17 -110.4838 366.5162)" width="25" height="48"/>
	</g>
</g>
</svg>
