<?xml version="1.0" encoding="iso-8859-1"?>
<!-- Generator: Adobe Illustrator 16.0.0, SVG Export Plug-In . SVG Version: 6.00 Build 0)  -->
<!DOCTYPE svg PUBLIC "-//W3C//DTD SVG 1.1//EN" "http://www.w3.org/Graphics/SVG/1.1/DTD/svg11.dtd">
<svg version="1.1" id="Capa_1" xmlns="http://www.w3.org/2000/svg" xmlns:xlink="http://www.w3.org/1999/xlink" x="0px" y="0px"
	 width="495.649px" height="495.65px" viewBox="0 0 495.649 495.65" style="enable-background:new 0 0 495.649 495.65;"
	 xml:space="preserve" fill="#000000">
<g>
	<g>
		<g>
			<path d="M116.942,175.677h206.616c16.264,0,29.491-13.23,29.491-29.493V98.055h-26.715c-0.564-45.418-37.592-82.22-83.141-82.22
				h-45.872c-45.544,0-82.575,36.802-83.138,82.22H87.449v48.128C87.449,162.446,100.679,175.677,116.942,175.677z M197.321,65.401
				h45.872c18.217,0,33.01,14.568,33.576,32.654h-113.02C164.31,79.97,179.108,65.401,197.321,65.401z"/>
			<path d="M417.01,228.05c8.133,0,15.989,1.182,23.491,3.193V121c0-12.664-10.277-22.943-22.941-22.943h-31.461v48.128
				c0,34.479-28.061,62.539-62.539,62.539h-79.364v32.786c0,8.937-7.246,16.164-16.168,16.164h-15.553
				c-8.923,0-16.169-7.229-16.169-16.164v-32.786h-79.363c-34.479,0-62.539-28.06-62.539-62.539V98.055h-31.46
				C10.278,98.055,0,108.334,0,120.999v238.226c0,12.664,10.278,22.942,22.943,22.942h284.092
				c2.856-16.555,9.345-32.271,19.219-45.998v-17.362C326.254,268.761,366.96,228.05,417.01,228.05z"/>
			<path d="M474.725,347.869v-29.063c0-31.834-25.898-57.711-57.716-57.711c-31.833,0-57.714,25.877-57.714,57.711v29.043
				c-12.97,14.021-20.957,32.72-20.957,53.309v63.716c0,8.262,6.693,14.941,14.955,14.941h127.414
				c8.244,0,14.942-6.682,14.942-14.941v-63.716C495.65,380.568,487.676,361.888,474.725,347.869z M433.516,438.507
				c0,9.134-7.392,16.522-16.522,16.522s-16.52-7.391-16.52-16.522v-51.533c0-9.129,7.387-16.519,16.52-16.519
				s16.522,7.39,16.522,16.519V438.507z M449.585,329.632c-9.938-4.533-20.957-7.129-32.575-7.129
				c-11.635,0-22.637,2.596-32.573,7.129v-10.826c0-17.976,14.602-32.573,32.573-32.573c17.943,0,32.575,14.6,32.575,32.573V329.632
				z"/>
		</g>
	</g>
</g>
<g>
</g>
<g>
</g>
<g>
</g>
<g>
</g>
<g>
</g>
<g>
</g>
<g>
</g>
<g>
</g>
<g>
</g>
<g>
</g>
<g>
</g>
<g>
</g>
<g>
</g>
<g>
</g>
<g>
</g>
</svg>
