<svg id="Capa_1" enable-background="new 0 0 512 512" height="512" viewBox="0 0 512 512" width="512" xmlns="http://www.w3.org/2000/svg"><g><path d="m15 152.094c37.769 0 58.312-10.228 74.817-18.445 13.478-6.708 23.216-11.555 45.694-11.555 3.242 0 6.213.104 8.975.297-8.126 5.633-32.939 24.878-35.246 51.244-2.703 30.901 26.752 57.556 28.007 58.676 1.411 1.258 3.196 1.903 4.994 1.903 1.36 0 2.727-.369 3.943-1.121 1.431-.884 35.067-22.02 37.771-52.92 2.198-25.125-16.862-47.441-24.74-55.508 8.109 2.072 14.498 5.255 22.067 9.028 16.495 8.199 37.024 18.402 74.768 18.402 37.765 0 58.301-10.228 74.799-18.445 7.516-3.742 13.871-6.904 21.919-8.969-7.888 8.082-26.921 30.385-24.724 55.492 2.704 30.901 36.34 52.036 37.771 52.92 1.216.752 2.583 1.121 3.943 1.121 1.797 0 3.583-.645 4.994-1.903 1.255-1.12 30.71-27.774 28.007-58.676-2.307-26.362-27.113-45.606-35.242-51.242 2.77-.194 5.751-.299 9.006-.299 22.471 0 32.21 4.849 45.688 11.56 16.496 8.216 37.024 18.44 74.79 18.44 8.284 0 15-6.716 15-15s-6.716-15-15-15c-26.071 0-41.259-5.605-54.491-11.899 8.057-3.615 37.313-18.365 44.368-44.692 8.028-29.962-16.351-61.327-17.393-62.648-2.056-2.605-5.581-3.55-8.665-2.322-1.562.623-38.358 15.596-46.387 45.558-6.099 22.762 6.5 46.32 13.367 56.913-12.467-5.833-26.942-10.911-51.276-10.911-29.521 0-44.53 7.473-59.046 14.7-14.11 7.028-28.674 14.278-55.572 15.2 6.37-5.133 31.596-27.205 31.596-54.9 0-31.019-31.667-55.005-33.015-56.011-2.661-1.985-6.31-1.985-8.971 0-1.348 1.006-33.015 24.992-33.015 56.011 0 27.687 25.212 49.755 31.591 54.896-26.822-.936-41.364-8.159-55.443-15.156-14.538-7.246-29.57-14.739-59.136-14.739-24.363 0-38.842 5.086-51.318 10.924 6.865-10.587 19.477-34.155 13.375-56.927-8.03-29.962-44.826-44.935-46.388-45.558-3.084-1.229-6.608-.284-8.665 2.322-1.042 1.321-25.421 32.686-17.393 62.648 7.057 26.336 36.329 41.086 44.375 44.695-13.239 6.293-28.435 11.896-54.499 11.896-8.284 0-15 6.716-15 15s6.716 15 15 15z"/><path d="m497 369.5c-26.071 0-41.259-5.604-54.491-11.899 8.057-3.615 37.313-18.365 44.368-44.692 8.028-29.962-16.351-61.327-17.393-62.648-2.056-2.606-5.581-3.549-8.665-2.322-1.562.623-38.358 15.596-46.387 45.558-6.099 22.762 6.5 46.32 13.367 56.913-12.467-5.833-26.942-10.911-51.276-10.911-29.521 0-44.53 7.473-59.046 14.7-14.11 7.028-28.674 14.278-55.572 15.2 6.37-5.132 31.596-27.205 31.596-54.9 0-31.019-31.667-55.005-33.015-56.011-2.661-1.985-6.31-1.985-8.971 0-1.348 1.006-33.015 24.992-33.015 56.011 0 27.687 25.212 49.755 31.591 54.896-26.822-.936-41.364-8.159-55.443-15.156-14.538-7.246-29.57-14.739-59.136-14.739-24.363 0-38.842 5.086-51.318 10.924 6.865-10.587 19.477-34.155 13.375-56.927-8.029-29.962-44.824-44.935-46.387-45.558-3.084-1.228-6.608-.285-8.665 2.322-1.042 1.321-25.421 32.686-17.393 62.648 7.057 26.336 36.329 41.086 44.375 44.695-13.239 6.294-28.435 11.896-54.499 11.896-8.284 0-15 6.716-15 15s6.716 15 15 15c37.769 0 58.312-10.228 74.817-18.445 13.478-6.708 23.216-11.555 45.694-11.555 2.816 0 5.432.076 7.881.223-10.568 5.178-35.166 19.52-41.556 43.367-8.028 29.962 16.352 61.327 17.394 62.647 1.454 1.843 3.643 2.855 5.89 2.855.931 0 1.872-.173 2.775-.533 1.562-.623 38.358-15.596 46.386-45.558 6.975-26.033-10.507-53.112-15.897-60.637 8.507 2.063 15.074 5.332 22.899 9.232 15.64 7.774 34.917 17.343 69.045 18.315-5.983 4.782-31.828 27.061-31.828 55.087 0 31.019 31.667 55.005 33.015 56.011 1.331.993 2.908 1.489 4.485 1.489s3.155-.497 4.485-1.489c1.348-1.006 33.015-24.992 33.015-56.011 0-28.021-25.836-50.298-31.825-55.084 34.209-.958 53.516-10.562 69.174-18.361 7.774-3.871 14.308-7.119 22.758-9.177-5.401 7.541-22.86 34.605-15.888 60.624 8.028 29.962 44.824 44.935 46.386 45.558.903.36 1.844.533 2.775.533 2.248 0 4.436-1.012 5.89-2.855 1.042-1.321 25.421-32.686 17.394-62.647-6.389-23.844-30.982-38.185-41.552-43.365 2.457-.148 5.083-.225 7.911-.225 22.471 0 32.21 4.849 45.688 11.56 16.496 8.216 37.024 18.44 74.79 18.44 8.284 0 15-6.716 15-15s-6.717-14.999-15.001-14.999z"/></g></svg>