<svg id="Capa_1" enable-background="new 0 0 512 512" height="512" viewBox="0 0 512 512" width="512" xmlns="http://www.w3.org/2000/svg"><g><path d="m391 211v150l30 30v76c0 24.899-20.099 45-45 45h-240c-24.901 0-45-20.101-45-45v-76l30-30v-150l-30-30v-76c0-24.901 20.099-45 45-45h240c24.901 0 45 20.099 45 45v76z" fill="#cce6ff"/><path d="m391 211v150l30 30v76c0 24.899-20.099 45-45 45h-120v-452h120c24.901 0 45 20.099 45 45v76z" fill="#b8c7e6"/><path d="m301 120v-75c0-8.401 6.599-15 15-15l-30-15h-60l-30 15c8.401 0 15 6.599 15 15v75h-60v332h210v-332z" fill="#ff6c6c"/><path d="m361 120v332h-105v-437h30l30 15c-8.401 0-15 6.599-15 15v75z" fill="#e63950"/><path d="m196 0h120v30h-120z" fill="#ebf8ff"/><path d="m256 0h60v30h-60z" fill="#cce6ff"/><path d="m91 181h330v210h-330z" fill="#ebf8ff"/><path d="m256 181h165v210h-165z" fill="#cce6ff"/><path d="m301 271v30h-30v30h-30v-30h-30v-30h30v-30h30v30z" fill="#ff6c6c"/><path d="m301 271v30h-30v30h-15v-90h15v30z" fill="#e63950"/></g></svg>