<?xml version="1.0" encoding="iso-8859-1"?>
<!-- Generator: Adobe Illustrator 21.0.0, SVG Export Plug-In . SVG Version: 6.00 Build 0)  -->
<svg xmlns="http://www.w3.org/2000/svg" xmlns:xlink="http://www.w3.org/1999/xlink" version="1.1" id="Capa_1" x="0px" y="0px" viewBox="0 0 511.625 511.625" style="enable-background:new 0 0 511.625 511.625;" xml:space="preserve" width="512" height="512">
<path d="M403.506,255.813l73.847-127.906H329.659L255.813,0l-73.847,127.906H34.272l73.847,127.906L34.272,383.719h147.694  l73.847,127.906l73.847-127.906h147.694L403.506,255.813z M425.391,157.906l-39.206,67.906l-39.206-67.906H425.391z   M368.865,255.813l-56.526,97.906H199.286l-56.526-97.906l56.526-97.906h113.052L368.865,255.813z M255.813,60l39.206,67.906  h-78.411L255.813,60z M86.234,157.906h78.411l-39.206,67.906L86.234,157.906z M86.234,353.719l39.206-67.906l39.206,67.906H86.234z   M255.813,451.625l-39.206-67.906h78.411L255.813,451.625z M386.186,285.813l39.206,67.906H346.98L386.186,285.813z"/>















</svg>
