<?xml version="1.0" encoding="utf-8"?>
<!-- Generator: Adobe Illustrator 22.1.0, SVG Export Plug-In . SVG Version: 6.00 Build 0)  -->
<svg version="1.1" id="Layer_1" xmlns="http://www.w3.org/2000/svg" xmlns:xlink="http://www.w3.org/1999/xlink" x="0px" y="0px"
	 viewBox="0 0 512 512" style="enable-background:new 0 0 512 512;" xml:space="preserve">
<g>
	<path d="M188.2,470.4h89.9c32.7,0,61.1-12.4,82.1-35.7c18.2-20.2,29.1-47.1,31.4-76.7c0.1-0.9-1.2-1.3-1.6-0.5
		c-24.4,47.2-73.6,79.6-130.4,79.6H147.6c-1.9,0-3.1,1.9-2.4,3.6c2.3,5.8,5.8,11.1,10.3,15.7C164.3,465.4,175.9,470.4,188.2,470.4
		L188.2,470.4z"/>
	<path d="M377,305.7c0.5-3.7-3.1-6.6-6.6-5.4c-8.6,2.9-17.8,4.4-27.4,4.4H171.7c-44.9,0-81.4,36.4-81.4,81.4v13.5
		c0,5.1,4.1,9.1,9.1,9.1h160.2C319.8,408.8,369.5,363.8,377,305.7z"/>
	<path d="M418.4,107.5V48.7c0-3-2.6-5.3-5.6-5c-49.6,5.3-89.8,43.7-99,92c-1.1,5.7,3.2,10.9,9,10.9h56.5
		C400.8,146.6,418.4,129.1,418.4,107.5z"/>
	<path d="M401.5,177.9c0-3.3-3.1-5.7-6.2-4.9c-5.2,1.3-10.5,2-16.1,2h-81.7c-23.7,0-46,9.2-62.9,25.9
		c-16.9,16.7-26.3,38.8-26.3,62.3v4.1c0,5.1,4.1,9.1,9.1,9.1H343c15,0,28.7-5.7,39.1-15c0.2-0.2,0.4-0.4,0.6-0.6
		c11.6-10.7,18.9-26,18.9-43L401.5,177.9z"/>
</g>
</svg>
