<?xml version="1.0" encoding="iso-8859-1"?>
<!-- Generator: Adobe Illustrator 19.0.0, SVG Export Plug-In . SVG Version: 6.00 Build 0)  -->
<svg version="1.1" id="Capa_1" xmlns="http://www.w3.org/2000/svg" xmlns:xlink="http://www.w3.org/1999/xlink" x="0px" y="0px"
	 viewBox="0 0 512.002 512.002" style="enable-background:new 0 0 512.002 512.002;" xml:space="preserve">
<g>
	<g>
		<path d="M375.427,0h-6.795c-12.739,0-24.679,6.249-31.939,16.719l-24.653,35.555c-12.921,18.635-33.337,29.321-56.011,29.321
			c-0.004,0-0.009,0-0.013,0c-22.681-0.004-43.097-10.698-56.014-29.341L175.385,16.73C168.125,6.254,156.184,0,143.44,0h-4.165
			c-4.075,0-7.209,3.607-6.647,7.643c0.508,3.641,0.912,6.528,1.022,7.275c5.155,28.797,19.961,57.144,40.64,77.803
			c16.132,16.116,43.607,35.327,82.892,35.327c38.869,0,65.942-19.154,81.808-35.221c20.358-20.619,35.186-48.519,41.752-78.565
			c0.075-0.36,0.572-2.807,1.263-6.209C382.846,3.896,379.669,0,375.427,0z"/>
	</g>
</g>
<g>
	<g>
		<path d="M317.298,381.353h140.924c3.707,0,6.712-3.005,6.712-6.712v-13.886c0-3.707-3.005-6.712-6.712-6.712H317.297
			c-8.093,0-15.057-6.219-15.437-14.303c-0.407-8.631,6.471-15.756,15.013-15.756h141.349c3.707,0,6.712-3.005,6.712-6.712v-12.628
			c0-3.707-3.005-6.712-6.712-6.712H317.297c-8.093,0-15.057-6.219-15.437-14.303c-0.407-8.631,6.471-15.756,15.013-15.756h141.349
			c3.707,0,6.712-3.005,6.712-6.712v-45.255l-1.608-3.191c-14.504-28.773-22.345-61.011-22.676-93.229
			c-0.331-32.218,6.847-64.612,20.755-93.671c2.76-5.761,2.295-12.451-1.263-17.792C456.723,2.893,450.8,0,444.638,0h-24.845
			c-3.193,0-5.946,2.253-6.579,5.384c-2.697,13.323-3.041,14.996-3.107,15.298c-7.764,35.53-25.425,68.653-49.73,93.266
			c-28.528,28.891-64.213,44.161-103.197,44.161c-39.234,0-75.245-15.257-104.137-44.122c-24.974-24.949-42.84-59.201-49.019-93.972
			c-0.088-0.494-0.211-1.331-2.003-14.22C101.561,2.477,98.724,0,95.373,0H67.016c-5.08,0-10.049,1.938-13.522,5.645
			c-4.966,5.3-6.244,12.836-3.52,19.345l4.5,10.749c22.404,53.506,21.787,114.615-1.692,167.658l-5.713,12.906v45.487
			c0,3.707,3.005,6.712,6.712,6.712H194.42c8.093,0,15.057,6.219,15.437,14.303c0.407,8.631-6.471,15.756-15.013,15.756H53.78
			c-3.707,0-6.712,3.005-6.712,6.712v12.628c0,3.707,3.005,6.712,6.712,6.712h140.639c8.093,0,15.057,6.219,15.437,14.303
			c0.407,8.631-6.471,15.756-15.013,15.756H53.78c-3.707,0-6.712,3.005-6.712,6.712v13.886c0,3.707,3.005,6.712,6.712,6.712h140.639
			c8.093,0,15.057,6.219,15.437,14.303c0.407,8.631-6.471,15.756-15.013,15.756H53.78c-3.707,0-6.712,3.005-6.712,6.712v28.106
			c0,17.476,11.498,32.869,28.256,37.827l7.162,2.119c56.763,16.798,115.127,25.194,173.514,25.194
			c58.371,0,116.764-8.4,173.513-25.194l7.164-2.12c16.758-4.959,28.256-20.352,28.256-37.827v-28.735
			c0-3.707-3.005-6.712-6.712-6.712H316.873v-0.001c-8.542,0-15.419-7.125-15.013-15.756
			C302.241,387.572,309.205,381.353,317.298,381.353z"/>
	</g>
</g>
<g>
</g>
<g>
</g>
<g>
</g>
<g>
</g>
<g>
</g>
<g>
</g>
<g>
</g>
<g>
</g>
<g>
</g>
<g>
</g>
<g>
</g>
<g>
</g>
<g>
</g>
<g>
</g>
<g>
</g>
</svg>
