<svg height="430pt" viewBox="-60 0 430 430.9" width="430pt" xmlns="http://www.w3.org/2000/svg"><path d="m.449219 353.5c.035156 8.394531 3.40625 16.433594 9.371093 22.34375 5.964844 5.910156 14.035157 9.203125 22.429688 9.15625h24.699219v-35.199219c0-4.402343 4.101562-7.800781 8.5-7.800781h121c4.402343 0 7.5 3.300781 7.5 7.800781v35.199219h96v-63h-257.699219c-8.394531-.046875-16.464844 3.246094-22.429688 9.15625-5.964843 5.910156-9.335937 13.949219-9.371093 22.34375zm0 0"/><path d="m72.949219 430.898438 49.101562-24.296876c1.152344-.5625 2.417969-.835937 3.699219-.800781 1.179688.015625 2.339844.289063 3.398438.800781l48.703124 24.296876v-72.898438h-104.902343zm0 0"/><path d="m50.949219 306v-306h-18.699219c-17.5 0-31.300781 14.5-31.300781 32.101562v285.699219c8-7.5 19.101562-11.800781 31.300781-11.800781zm0 0"/><path d="m110.949219 53h156v194h-156zm0 0"/><path d="m66.949219 306h244v-306h-244zm28-261c.015625-4.414062 3.589843-7.988281 8-8h172c4.414062.011719 7.988281 3.585938 8 8v210c-.011719 4.414062-3.585938 7.988281-8 8h-172c-4.410157-.011719-7.984375-3.585938-8-8zm0 0"/></svg>