<?xml version="1.0" encoding="iso-8859-1"?>
<!-- Generator: Adobe Illustrator 19.0.0, SVG Export Plug-In . SVG Version: 6.00 Build 0)  -->
<svg version="1.1" id="Capa_1" xmlns="http://www.w3.org/2000/svg" xmlns:xlink="http://www.w3.org/1999/xlink" x="0px" y="0px"
	 viewBox="0 0 512 512" style="enable-background:new 0 0 512 512;" xml:space="preserve">
<g>
	<g>
		<path d="M256,0C114.848,0,0,114.848,0,256s114.848,256,256,256s256-114.848,256-256S397.152,0,256,0z M256,320
			c11.84,0,22.784-3.456,32.288-9.088l45.76,45.76C312.416,373.568,285.536,384,256,384c-70.592,0-128-57.408-128-128
			s57.408-128,128-128c29.536,0,56.384,10.464,78.08,27.296l-45.792,45.76C278.784,195.456,267.84,192,256,192
			c-35.296,0-64,28.704-64,64C192,291.296,220.704,320,256,320z M256,96c-88.224,0-160,71.776-160,160s71.776,160,160,160
			c38.336,0,73.088-14.112,100.672-36.672l45.76,45.76C363.136,459.2,312,480,256,480C132.48,480,32,379.488,32,256
			C32,132.48,132.48,32,256,32c56,0,107.136,20.8,146.464,54.912l-45.792,45.76C329.088,110.112,294.336,96,256,96z"/>
	</g>
</g>
<g>
</g>
<g>
</g>
<g>
</g>
<g>
</g>
<g>
</g>
<g>
</g>
<g>
</g>
<g>
</g>
<g>
</g>
<g>
</g>
<g>
</g>
<g>
</g>
<g>
</g>
<g>
</g>
<g>
</g>
</svg>
