<svg height="480pt" viewBox="0 0 480 480.00956" width="480pt" xmlns="http://www.w3.org/2000/svg"><path d="m400.117188 353.609375 13.976562 38.6875c2.335938 6.488281 1.769531 13.667969-1.558594 19.707031-3.324218 6.039063-9.085937 10.359375-15.820312 11.855469-51.464844 11.246094-104.03125 16.664063-156.710938 16.148437-52.882812.496094-105.65625-4.964843-157.320312-16.277343-6.566406-1.515625-12.183594-5.753907-15.4375-11.65625-3.3125-6.09375-3.871094-13.304688-1.539063-19.832031l13.496094-38.496094c-46.992187 12.160156-79.19921875 30.390625-79.19921875 54.261718 0 46.800782 123.67968775 72 239.99999975 72 116.320313 0 240-25.199218 240-72 0-24-32.535156-42.285156-79.886718-54.398437zm0 0"/><path d="m86.40625 408.167969c50.441406 11.027343 101.964844 16.34375 153.597656 15.839843 51.554688.503907 103-4.808593 153.359375-15.839843 2.214844-.523438 4.097657-1.96875 5.183594-3.96875 1.082031-2 1.265625-4.367188.496094-6.507813l-10.292969-28.503906c-48.917969 10.199219-98.777344 15.167969-148.746094 14.820312-50.132812.355469-100.160156-4.652343-149.230468-14.933593l-10.046876 28.695312c-.765624 2.128907-.589843 4.484375.476563 6.480469 1.085937 2 2.980469 3.429688 5.203125 3.917969zm0 0"/><path d="m383.277344 354.035156-67.992188-188.265625c-1.875-5.195312-3.433594-10.496093-4.664062-15.878906l-41.703125 32.4375-9.824219-12.636719 44.046875-34.257812-56.191406-7.496094 2.113281-15.855469 58.132812 7.75c-.015624-5.714843.332032-11.429687 1.050782-17.101562l11.679687-93.761719c.386719-3.203125-1.191406-6.328125-4-7.917969-2.824219-1.628906-6.359375-1.34375-8.882812.71875l-87.679688 70.160157c-22.300781 17.808593-39.128906 41.542968-48.558593 68.480468l-74.71875 213.472656c47.316406 9.933594 95.574218 14.667969 143.917968 14.125 48.121094.535157 96.160156-4.148437 143.273438-13.972656zm-172.710938-23.945312c-2.476562-1.789063-3.71875-4.832032-3.203125-7.839844l4.082031-23.359375-17.039062-16.5625c-2.167969-2.117187-2.945312-5.28125-2-8.160156.933594-2.921875 3.445312-5.058594 6.480469-5.519531l23.4375-3.359376 10.480469-21.28125c1.515624-2.53125 4.25-4.078124 7.199218-4.078124 2.953125 0 5.683594 1.546874 7.199219 4.078124l10.480469 21.28125 23.441406 3.359376c3.035156.460937 5.542969 2.597656 6.480469 5.519531.941406 2.878906.164062 6.042969-2 8.160156l-17.039063 16.5625 4.078125 23.359375c.515625 3.007812-.722656 6.050781-3.199219 7.839844-1.371093 1-3.023437 1.53125-4.71875 1.519531-1.304687-.015625-2.585937-.316406-3.761718-.878906l-20.960938-11.039063-20.960937 11.039063c-2.726563 1.363281-5.984375 1.117187-8.476563-.640625zm0 0"/></svg>