<svg id="Capa_1" enable-background="new 0 0 512 512" height="512" viewBox="0 0 512 512" width="512" xmlns="http://www.w3.org/2000/svg"><g><g><path d="m428.831 348.489c-3.047-.817-5.838-2.592-7.894-5.198-2.85-3.613-27.588-36.246-18.749-69.234s46.579-48.88 50.854-50.584c6.168-2.458 13.218-.569 17.33 4.644 2.85 3.613 27.588 36.246 18.749 69.234s-46.58 48.88-50.854 50.584c-3.084 1.228-6.389 1.37-9.436.554z" fill="#00cb75"/><path d="m438.267 347.934c4.275-1.704 42.015-17.596 50.854-50.584s-15.899-65.621-18.749-69.234c-2.056-2.606-4.847-4.382-7.894-5.198l-33.646 125.57c3.046.817 6.351.675 9.435-.554z" fill="#00a763"/></g><g><path d="m83.169 348.489c-3.047.817-6.352.674-9.436-.555-4.275-1.704-42.015-17.596-50.854-50.583s15.899-65.621 18.749-69.234c4.112-5.213 11.162-7.102 17.33-4.644 4.275 1.704 42.015 17.596 50.854 50.584s-15.899 65.621-18.749 69.234c-2.056 2.606-4.846 4.381-7.894 5.198z" fill="#00cb75"/><path d="m91.064 343.291c2.85-3.613 27.588-36.246 18.749-69.234s-46.58-48.88-50.854-50.584c-3.084-1.229-6.388-1.371-9.436-.555l33.647 125.57c3.047-.816 5.837-2.591 7.894-5.197z" fill="#00a763"/></g><g><path d="m390.764 488.082c-3.047.816-6.352.674-9.436-.555-4.275-1.704-42.015-17.596-50.854-50.583s15.899-65.621 18.749-69.234c4.112-5.213 11.162-7.102 17.33-4.644 4.275 1.704 42.015 17.596 50.854 50.583s-15.899 65.621-18.749 69.234c-2.056 2.607-4.846 4.382-7.894 5.199z" fill="#00cb75"/><path d="m398.659 482.883c2.85-3.613 27.588-36.246 18.749-69.234s-46.58-48.88-50.854-50.583c-3.084-1.229-6.388-1.371-9.436-.555l33.647 125.57c3.047-.816 5.837-2.591 7.894-5.198z" fill="#00a763"/></g><path d="m256 512c-3.155 0-6.31-.993-8.971-2.978-3.688-2.752-36.029-27.871-36.029-62.022s32.341-59.27 36.029-62.022c5.321-3.971 12.62-3.971 17.941 0 3.689 2.752 36.03 27.871 36.03 62.022s-32.341 59.27-36.029 62.022c-2.661 1.985-5.816 2.978-8.971 2.978z" fill="#00cb75"/><path d="m264.971 509.022c3.688-2.752 36.029-27.871 36.029-62.022s-32.341-59.27-36.029-62.022c-2.661-1.985-5.816-2.978-8.971-2.978v130c3.155 0 6.31-.993 8.971-2.978z" fill="#00a763"/><path d="m256 352c-3.155 0-6.31-.993-8.971-2.978-3.688-2.752-36.029-27.871-36.029-62.022s32.341-59.27 36.029-62.022c5.321-3.971 12.62-3.971 17.941 0 3.689 2.752 36.03 27.871 36.03 62.022s-32.341 59.27-36.029 62.022c-2.661 1.985-5.816 2.978-8.971 2.978z" fill="#00cb75"/><path d="m264.971 349.022c3.688-2.752 36.029-27.871 36.029-62.022s-32.341-59.27-36.029-62.022c-2.661-1.985-5.816-2.978-8.971-2.978v130c3.155 0 6.31-.993 8.971-2.978z" fill="#00a763"/><g><path d="m121.236 488.082c-3.047-.817-5.838-2.592-7.894-5.198-2.85-3.613-27.588-36.246-18.749-69.234s46.58-48.88 50.854-50.584c6.168-2.458 13.218-.569 17.33 4.644 2.85 3.613 27.588 36.246 18.749 69.234s-46.58 48.88-50.854 50.584c-3.084 1.228-6.389 1.37-9.436.554z" fill="#00cb75"/><path d="m130.672 487.527c4.275-1.704 42.015-17.596 50.854-50.584s-15.899-65.621-18.749-69.234c-2.056-2.606-4.847-4.382-7.894-5.198l-33.646 125.57c3.046.817 6.351.675 9.435-.554z" fill="#00a763"/></g><path d="m1 367.625c0-17.604 14.271-31.875 31.875-31.875 34.298 0 53.042-7.143 68.103-12.88 12.762-4.86 21.982-8.37 43.47-8.37 21.494 0 30.718 3.51 43.486 8.379 15.061 5.728 33.805 12.871 68.113 12.871 34.293 0 53.032-7.143 68.087-12.88 12.757-4.86 21.976-8.37 43.449-8.37 21.478 0 30.697 3.51 43.455 8.37 15.056 5.737 33.795 12.88 68.087 12.88 17.604 0 31.875 14.271 31.875 31.875 0 17.604-14.271 31.875-31.875 31.875-34.293 0-53.032-7.143-68.087-12.88-12.757-4.86-21.976-8.37-43.455-8.37-21.473 0-30.692 3.51-43.449 8.37-15.056 5.737-33.795 12.88-68.087 12.88-34.308 0-53.052-7.143-68.113-12.871-12.768-4.869-21.992-8.379-43.486-8.379-21.489 0-30.708 3.51-43.47 8.37-15.061 5.737-33.805 12.88-68.103 12.88-17.604 0-31.875-14.271-31.875-31.875z" fill="#af8663"/><path d="m479.125 335.75c-34.293 0-53.032-7.143-68.087-12.88-12.757-4.86-21.976-8.37-43.455-8.37-21.473 0-30.692 3.51-43.449 8.37-15.056 5.737-33.795 12.88-68.087 12.88-.016 0-.031 0-.047 0v63.75h.047c34.293 0 53.032-7.143 68.087-12.88 12.757-4.86 21.976-8.37 43.449-8.37 21.478 0 30.697 3.51 43.455 8.37 15.056 5.737 33.795 12.88 68.087 12.88 17.604 0 31.875-14.271 31.875-31.875 0-17.604-14.271-31.875-31.875-31.875z" fill="#896645"/><g><path d="m256 130c-3.155 0-6.31-.993-8.971-2.978-3.688-2.752-36.029-27.871-36.029-62.022s32.341-59.27 36.029-62.022c5.321-3.971 12.62-3.971 17.941 0 3.689 2.752 36.03 27.871 36.03 62.022s-32.341 59.27-36.029 62.022c-2.661 1.985-5.816 2.978-8.971 2.978z" fill="#00cb75"/><path d="m264.971 127.022c3.688-2.752 36.029-27.871 36.029-62.022s-32.341-59.27-36.029-62.022c-2.661-1.985-5.816-2.978-8.971-2.978v130c3.155 0 6.31-.993 8.971-2.978z" fill="#00a763"/></g><g><path d="m371.067 269.562c-3.143.275-6.373-.439-9.196-2.185-3.914-2.42-38.321-24.624-41.298-58.646-2.977-34.021 27.053-61.863 30.487-64.926 4.955-4.419 12.226-5.056 17.873-1.564 3.914 2.42 38.321 24.624 41.298 58.646 2.977 34.021-27.053 61.863-30.487 64.926-2.478 2.211-5.534 3.474-8.677 3.749z" fill="#00cb75"/><path d="m379.744 265.814c3.434-3.063 33.463-30.905 30.487-64.926s-37.384-56.226-41.298-58.646c-2.824-1.746-6.053-2.46-9.196-2.185l11.33 129.505c3.143-.275 6.199-1.538 8.677-3.748z" fill="#00a763"/></g><g><path d="m140.933 269.562c-3.143-.275-6.2-1.539-8.677-3.749-3.434-3.063-33.463-30.905-30.487-64.926s37.384-56.226 41.298-58.646c5.647-3.492 12.918-2.856 17.873 1.564 3.434 3.063 33.463 30.905 30.487 64.926s-37.384 56.226-41.298 58.646c-2.823 1.746-6.053 2.46-9.196 2.185z" fill="#00cb75"/><path d="m150.129 267.378c3.914-2.42 38.321-24.624 41.298-58.646 2.976-34.021-27.053-61.863-30.487-64.926-2.477-2.21-5.534-3.474-8.677-3.749l-11.33 129.505c3.143.275 6.373-.439 9.196-2.184z" fill="#00a763"/></g><g><path d="m428.831 126.489c-3.047-.817-5.838-2.592-7.894-5.198-2.85-3.613-27.588-36.246-18.749-69.234s46.579-48.88 50.854-50.584c6.168-2.458 13.218-.569 17.33 4.644 2.85 3.613 27.588 36.246 18.749 69.234s-46.58 48.88-50.854 50.584c-3.084 1.228-6.389 1.37-9.436.554z" fill="#00cb75"/><path d="m438.267 125.934c4.275-1.704 42.015-17.596 50.854-50.584s-15.899-65.621-18.749-69.233c-2.056-2.606-4.847-4.382-7.894-5.198l-33.646 125.57c3.046.816 6.351.674 9.435-.555z" fill="#00a763"/></g><g><path d="m83.169 126.489c-3.047.817-6.352.674-9.436-.555-4.275-1.704-42.015-17.596-50.854-50.583s15.899-65.622 18.749-69.234c4.112-5.213 11.162-7.102 17.33-4.644 4.275 1.704 42.015 17.596 50.854 50.583s-15.899 65.621-18.749 69.234c-2.056 2.607-4.847 4.382-7.894 5.199z" fill="#00cb75"/><path d="m91.063 121.29c2.85-3.613 27.588-36.246 18.749-69.234s-46.579-48.879-50.854-50.583c-3.084-1.229-6.388-1.371-9.436-.555l33.647 125.57c3.047-.816 5.838-2.591 7.894-5.198z" fill="#00a763"/></g><path d="m1 145.625c0-17.604 14.271-31.875 31.875-31.875 34.298 0 53.042-7.143 68.103-12.88 12.762-4.86 21.982-8.37 43.47-8.37 21.494 0 30.718 3.51 43.486 8.379 15.061 5.728 33.805 12.871 68.113 12.871 34.293 0 53.032-7.143 68.087-12.88 12.757-4.86 21.976-8.37 43.449-8.37 21.478 0 30.697 3.51 43.455 8.37 15.056 5.737 33.795 12.88 68.087 12.88 17.604 0 31.875 14.271 31.875 31.875 0 17.604-14.271 31.875-31.875 31.875-34.293 0-53.032-7.143-68.087-12.88-12.757-4.86-21.976-8.37-43.455-8.37-21.473 0-30.692 3.51-43.449 8.37-15.056 5.737-33.795 12.88-68.087 12.88-34.308 0-53.052-7.143-68.113-12.871-12.768-4.869-21.992-8.379-43.486-8.379-21.489 0-30.708 3.51-43.47 8.37-15.061 5.737-33.805 12.88-68.103 12.88-17.604 0-31.875-14.271-31.875-31.875z" fill="#af8663"/><path d="m479.125 113.75c-34.293 0-53.032-7.143-68.087-12.88-12.757-4.86-21.976-8.37-43.455-8.37-21.473 0-30.692 3.51-43.449 8.37-15.056 5.737-33.795 12.88-68.087 12.88-.016 0-.031 0-.047 0v63.75h.047c34.293 0 53.032-7.143 68.087-12.88 12.757-4.86 21.976-8.37 43.449-8.37 21.478 0 30.697 3.51 43.455 8.37 15.056 5.737 33.795 12.88 68.087 12.88 17.604 0 31.875-14.271 31.875-31.875 0-17.604-14.271-31.875-31.875-31.875z" fill="#896645"/></g></svg>