<svg id="Capa_1" enable-background="new 0 0 512 512" height="512" viewBox="0 0 512 512" width="512" xmlns="http://www.w3.org/2000/svg"><g><ellipse cx="256" cy="398.808" fill="#c3ea21" rx="256" ry="75"/><path d="m512 398.808c0-59.326-167.802-75-256-75v150c88.198 0 256-15.674 256-75z" fill="#9cdd05"/><g><path d="m241.352 398.793c.029-140.596 115.272-254.985 255.648-254.985h15v15c0 140.391-115.595 254.795-256 255z" fill="#e30a6c"/></g><g><g><path d="m256 413.808c-140.405-.205-256-114.609-256-255v-15h15c140.376 0 255.619 114.39 255.648 254.985z" fill="#ff5f96"/></g></g><path d="m399.745 79.486-5.742-13.857-13.857 5.742c-119.254 49.4-181.163 179.786-148.526 301.437 2.822 10.519 24.38 41 24.38 41 129.697-53.936 197.402-204.771 143.745-334.322z" fill="#ff5f96"/><path d="m131.854 71.371-13.857-5.742-5.742 13.857c-53.643 129.522 14.106 280.371 143.745 334.322 0 0 22.376-33.141 25.354-45 30.257-120.504-31.569-248.587-149.5-297.437z" fill="#ff8fb8"/><path d="m266.605 48.798-10.605-10.606-10.605 10.605c-99.419 99.419-99.419 254.985 0 354.404l10.605 10.607 10.605-10.605c99.419-99.42 99.419-254.986 0-354.405z" fill="#ffb3e5"/><path d="m266.605 48.798-10.605-10.606v375.615l10.605-10.605c99.419-99.419 99.419-254.985 0-354.404z" fill="#ff8fb8"/></g></svg>