<?xml version="1.0" encoding="utf-8"?>
<!-- Generator: Adobe Illustrator 23.0.5, SVG Export Plug-In . SVG Version: 6.00 Build 0)  -->
<svg version="1.1" id="图层_1" xmlns="http://www.w3.org/2000/svg" xmlns:xlink="http://www.w3.org/1999/xlink" x="0px" y="0px"
	 viewBox="0 0 1080 1080" style="enable-background:new 0 0 1080 1080;" xml:space="preserve">
<g>
	<path d="M539.5,1056c-143,0-286,0-429.1,0c-54.4,0-89-34.3-89-88.5c0-286.3,0-572.7,0-859c0-53.8,34.5-88.5,88.1-88.5
		c287.5,0,575,0,862.5,0c44.2,0,77.6,28.1,84.6,71.1c0.8,4.8,0.8,9.8,0.8,14.8c0,288.1,0,576.2,0,864.2c0,50.5-35.6,85.9-86.3,85.9
		C827.3,1056,683.4,1056,539.5,1056z M539.5,80.4c-142.4,0-284.8,0-427.2,0c-3.8,0-7.6-0.1-11.3,0.3C90.8,82,83.4,89.5,82.2,99.6
		c-0.4,3.5-0.3,7-0.3,10.4c0,285.1,0,570.2,0,855.4c0,3.8-0.1,7.6,0.4,11.3c1.2,9.7,8.6,17,18.2,18.3c3.1,0.4,6.4,0.4,9.6,0.4
		c286.3,0,572.6,0,858.8,0c3.2,0,6.4,0.1,9.6-0.4c9.7-1.4,16.9-8.7,18.2-18.4c0.4-3.4,0.4-7,0.4-10.4c0-285.4,0-570.8,0-856.2
		c0-3.5,0.1-7-0.3-10.4c-1.2-10.1-8.6-17.6-18.7-18.8c-3.7-0.4-7.5-0.3-11.3-0.3C824.3,80.4,681.9,80.4,539.5,80.4z"/>
	<path d="M207.6,490.1c2.8-2.8,6.3-6,9.3-9.6c4.2-5,10.2-9.8,11.7-15.6c3.7-14.5,5.3-29.6,7.8-45.4c-25.3,0-49.9,0-74.9,0
		c0-5.4,0-9.9,0-15.5c25.7,0,51.7,0,78.9,0c4.3-28.9,8.5-56.9,12.8-86.3c-22.9,17.2-44.2,33.2-66.4,49.9c-3.2-3.4-5.1-5.4-7.2-7.6
		c38.2-57.7,68.5-118.1,85.2-185.8c34.8,5.6,69.1,11.1,102.5,16.5c7,10.6,5.9,15.8-3.7,21.5c-2.2,1.3-4.6,3-7,3.4
		c-15.4,2.7-23.1,14.1-30.5,27c51,0,101.6,0,153.3,0c13.9-16.8,28.5-34.5,43.2-52.3c2.2,1.2,4,2.1,5.6,3.2
		c22.5,15.5,45,31,67.2,46.9c2.9,2.1,6.1,6.6,5.8,9.6c-0.3,3.1-4.3,7.2-7.6,8.2c-7.7,2.3-15.8,4.1-23.8,4.1
		c-83.4,0.3-166.9,0.2-250.3,0.2c-3.5,0-6.9,0-8.7,0c-10.1,10-19.1,18.9-28.9,28.5c15.2,4.4,30.2,8.5,45,13.2
		c13.1,4.1,26.4,5.9,40.2,5.7c27.6-0.5,55.2-0.2,83.3-0.2c8.4-14,16.7-27.8,25.4-42.2c30.6,14,60.9,27.9,91.5,41.9
		c1.2,20.4-15.7,24-28.5,32.7c-1.9,15.9-3.9,32.6-6.2,52c10.4-12.5,19.3-23.1,28.2-33.8c5.3,4,10,7.7,15.7,12
		c26.9-63.3,44.4-128.3,56.7-195.9c6.8,1.5,12.9,2.8,19,4.1c27.5,6,55,12,82.5,18c7.2,1.6,11.3,7,7.9,13.4c-3,5.6-8.6,10.5-14.1,14
		c-4.4,2.8-10.5,3.1-16,4.5c-10.2,16-20.6,32.2-31.5,49.3c35,0,68.9,0,103.5,0c14.3-18.3,28.9-37.1,43.9-56.2
		c27.3,17.8,54.1,35.1,80.5,53.1c3.1,2.1,3.7,7.7,5.4,11.3c-8.5,10-18.8,10.8-28.9,11.2c-14.5,0.6-29,0.1-44.2,0.1
		c-16.9,46.5-34.4,92.5-65.9,133c43.8,16.3,88.5,24,134.3,31.6c-0.9,4.4-1.8,8.4-2.6,12.6c-46.2,8.2-68.3,40.2-81.9,81.8
		c-40.2-20.9-78.4-43.6-112.9-71.8c-15.6,9.2-30.8,18.2-46.7,27.6c1.8,1.5,3.1,2.8,4.7,3.8c26.5,18.3,53.1,36.6,79.7,54.8
		c6.2,4.2,10.3,9.3,8.9,17.8c-7.1,7.1-16.7,6.7-25.2,5.8c-18.9-2.1-34.3,5.9-51.9,15.2c8.9,2,16.1,3.2,23,5.3
		c21.9,6.8,43.8,13.3,65.3,21.2c9.1,3.3,17.6,9.1,25.2,15.2c30,23.6,24.3,68.7-10.3,85.1c-22.8,10.8-36.8,6.3-49.2-15.7
		c-3.6-6.3-7.6-12.3-11.6-18.7c-39.5,5.1-78.8,10.3-118.6,15.5c-0.1,2.6-0.5,5.2-0.4,7.7c0.8,31.7,0.9,63.4,2.8,95
		c1.4,23.9-8,41-27.9,53c-21.1,12.7-44.8,17.2-68.7,20.6c-7.1,1-14.3,1.5-22.2,2.3c-1.5-51.3-39.5-64-78.4-75.6
		c0.5-6.8,4.9-6.2,9.3-6c23.8,1.1,47.6,2.1,71.4,2.9c11.9,0.4,18.3-4,18.6-14.6c0.6-24,0.2-48.1,0.2-73.2c-39.6-0.5-77.4,7.5-118,12
		c3.8,2.4,5.4,3.6,7.2,4.5c18.1,9.1,36.3,18.3,54.5,27.3c5.4,2.6,10.4,6.3,8.5,12.3c-1.3,4.2-5.8,9-9.9,10.5
		c-6.6,2.4-14.2,1.9-21.3,3.2c-6.1,1.1-12.7,1.6-18,4.5c-63.9,34.6-130.6,61.8-201.2,79c-1.1,0.3-2.2,0.4-3.9,0.7
		c-1.9-2.8-3.8-5.6-6.2-9.1c56.8-34.7,110.7-72,149.4-126.9c-0.3-0.9-0.6-1.8-0.8-2.7c-11.6,1.1-23.1,2.1-34.1,3.1
		c-3.8,5.8-6,11.6-10.3,15.2c-4.3,3.5-10.8,6.9-15.7,6.3c-3.7-0.5-8.4-7-9.6-11.7c-6.8-25.5-12.7-51.2-19-77.7
		c2.7-0.2,4.9-0.6,7-0.3c37.7,4,74.2-1.3,109.6-14.2c37.3-13.6,74.5-27.7,111.7-41.7c2.9-1.1,5.6-2.7,10.3-5
		c-51.4,7.1-100.6,13.8-150,20.6c-1.7,4.1-2.6,10-6,13.4c-3.7,3.7-9.8,6.8-14.7,6.7c-3.4-0.1-8.4-5.5-9.6-9.4
		c-7.2-23.2-13.6-46.8-20.7-71.9c51.2-2.6,90.6-28.7,128.4-61.9c-41.5,0-81.3,0-122.5,0c-7.6,8.4-16.2,17.9-24.6,27.2
		C249.3,528.4,211.8,500.9,207.6,490.1z M529.5,419.4c-2,23.4-4,46-5.9,68.5c0.6,0.2,1.2,0.4,1.8,0.6c6.5-8.3,13-16.6,19.8-25.2
		c14.4,10.6,28.1,20.9,42.1,30.6c6.3,4.4,9.9,9.3,6.6,18.9c28.9-22.3,55.2-44.3,77-71.6c-20.4-29.7-32.5-62.3-40.8-97.3
		c-14,13.1-27.1,25.2-40.5,37.7c11.2,8.3,21.7,16,31.7,23.4c0.3,8.2-3.5,12.3-10.5,13.2c-6.3,0.8-12.7,1.1-19.1,1.1
		C571.1,419.5,550.6,419.4,529.5,419.4z M312.2,419.8c-4.1,25.9-8.2,51.5-12.4,77.5c21.6,0,42.2,0,61.5,0
		c-2.4-23.8-1.5-47.9-15.1-69.3c2.9-1,4.3-2,5.5-1.8c19.9,4.2,39.7,9,56.1,22.1c6.5,5.2,9.1,12,8.6,20.7c-0.6,11.8-4,21.6-15.5,28.2
		c14.6,0,27.5,0,40.5,0c3.1-26.1,6.1-51.6,9.2-77.4C403.9,419.8,358.4,419.8,312.2,419.8z M661,619c-72.7,21.9-142.6,43-213.2,64.3
		c85.7-3,170.9-6,256.1-9.1c0.6-0.9,1.1-1.8,1.7-2.7C690.3,653.6,675,635.6,661,619z M399.3,585.4c2.6,0.2,3.7,0.4,4.8,0.4
		c55.8-0.9,111.6-1.7,167.3-2.7c2.5,0,5.3-0.5,7.4-1.7c28.9-16.4,56.6-34.5,78.8-59.6c1.5-1.7,2.8-3.7,3.7-4.9
		c-35.3,14-70.7,28.1-106.4,42.3c-2.9-6.1-4.7-9.9-6.5-13.7c13.8-9.8,27-19.2,40.1-28.5c-21.7,0-42.8,0-63.9,0c4.7,3.6,10,5,14.1,8
		c2.9,2.1,5.8,6.5,5.6,9.7c-0.2,3-3.9,6.9-7,8.4c-4,2-9.2,3.2-13.5,2.5c-14.2-2.1-26,3.7-38.1,9.3c-3.4,1.6-6.9,3-10.5,4.2
		C450.5,567.7,425.6,576.3,399.3,585.4z M453.8,403.3c2.1-25.2,4.1-49.6,6.1-74.2c-44.7,0-88.1,0-132.1,0
		c-4.1,24.9-8.2,49.2-12.2,73.9c19.6,0,37.8,0,56.5,0c-5-23.6-9.9-46.6-14.8-70c1.1-0.4,2.6-1.4,3.7-1.2c19.6,4.3,39,9.4,55,22.5
		c8.1,6.6,11.8,15.6,8.9,25.6c-2.4,8.2-6.9,15.7-10.3,23.3C426.6,403.3,439.6,403.3,453.8,403.3z M708.8,393
		c17-30,29.4-60.7,37.4-93.7c-27.9,0-54.8,0-82.2,0c-5.9,9.4-11.7,18.7-17.7,28.1C663.1,352.8,683.6,374.2,708.8,393z"/>
	<path d="M626.8,743.2c1.6-2.4,2.8-4.2,4-6c50.3,4.2,100.2,8.4,147.9,24.3c14.9,5,29.7,12.1,42.8,20.9
		c20.1,13.4,24.2,31.7,15.8,56.1c-7.2,20.8-25.5,34.8-46.7,33.9c-6.5-0.3-13.3-3.7-19.1-7.3c-5.6-3.4-10.5-8.4-14.6-13.5
		c-34.7-43.2-77.3-76.9-124.8-104.8C630.6,745.8,629.3,744.8,626.8,743.2z"/>
</g>
</svg>
