<?xml version="1.0" encoding="utf-8"?>
<!-- Generator: Adobe Illustrator 23.0.5, SVG Export Plug-In . SVG Version: 6.00 Build 0)  -->
<svg version="1.1" id="图层_1" xmlns="http://www.w3.org/2000/svg" xmlns:xlink="http://www.w3.org/1999/xlink" x="0px" y="0px"
	 viewBox="0 0 256 256" style="enable-background:new 0 0 256 256;" xml:space="preserve">
<g>
	<g>
		<path d="M103.9,174.4c-31.3,24.7-62.2,49.1-93,73.5c-0.3-0.3-0.5-0.5-0.8-0.8c6.3-8.2,12.6-16.5,19-24.7
			c16.7-21.6,33.3-43.3,50.1-64.8c2.2-2.9,2.2-4.5-0.4-7c-10.4-9.9-20.4-20.1-30.7-30c-3.4-3.3-5.5-6.7-4.1-11.4
			c1.6-5.3,5.3-8.6,10.6-9.3c7.4-1,15-1.9,22.4-1.6c11.7,0.5,20.7-3.5,29.4-11.4c15.7-14.4,32.3-27.8,48.7-41.4
			c2.5-2.1,3.8-4.3,3.6-7.6c-0.3-5.2-0.2-10.3-0.2-15.5c0-9,6.8-15.2,15.6-14.1c1.5,0.2,3.1,1.3,4.2,2.4
			c22.2,22.1,44.3,44.3,66.4,66.5c1.2,1.2,2.2,2.5,3.2,3.9c6,8.8,2.2,17-8.5,18.1c-2.5,0.3-5,1.1-7.4,0.7
			c-12.4-1.9-20.2,4.2-27.6,13.5c-13.7,17-28.5,33-42.6,49.6c-1.5,1.8-2.6,4.7-2.6,7c0,11.5,0.3,23,0.7,34.5
			c0.1,4.5-0.7,8.3-5.2,10.3c-5.3,2.3-10.7,1.5-14.3-2.2C128.1,200,116.2,187.5,103.9,174.4z"/>
	</g>
</g>
<defs>
    <filter id="change">
        <feColorMatrix values="
            0 0 0 0 0.8
            0 0 0 0 0
            0 0 0 0 0
            0 0 0 1 0" />
        
    </filter>
</defs>
</svg>
